<svg xmlns="http://www.w3.org/2000/svg" viewBox="0 0 142 52" class="btn-buy"><title>BtnBuy</title><style>.btn-buy{fill:#3ff;transition:all .3s ease-in}.btn-buy:hover{fill:#fff}</style><path d="M139 52H3a3 3 0 0 1-3-3V37.86a3 3 0 0 1 2.46-3 9 9 0 0 0 0-17.76 3 3 0 0 1-2.46-3V3a3 3 0 0 1 3-3h136a3 3 0 0 1 3 3v11.14a3 3 0 0 1-2.46 3 9 9 0 0 0 0 17.76 3 3 0 0 1 2.46 3V49a3 3 0 0 1-3 3zM3 2a1 1 0 0 0-1 1v11.14a1 1 0 0 0 .78 1 11 11 0 0 1 0 21.71 1 1 0 0 0-.78 1V49a1 1 0 0 0 1 1h136a1 1 0 0 0 1-1V37.86a1 1 0 0 0-.78-1 11 11 0 0 1 0-21.71 1 1 0 0 0 .78-1V3a1 1 0 0 0-1-1zm28.77 29h-2.51l-2.09-4.22h-1V31h-2.3v-9.71h2.3v3.81h1.07l2-3.81h2.26l-2.39 4.4zm1.3.24l-.31-1.54A2.47 2.47 0 0 0 35 28.44h-.73l-3-7.14h2.37l2 5.84 1.78-5.84h2.32l-2.54 6.8c-.85 2.28-1.95 2.9-4.13 3.14zM45.64 31v-7.94h-2.88V31h-2.3v-9.71h7.48V31zM55 31v-3.63a21.5 21.5 0 0 1 .32-3.82L52.52 31h-2.76v-9.71H52V25a20.06 20.06 0 0 1-.34 3.73l2.84-7.42h2.72V31zm8.08-7.94V31h-2.3v-7.94h-2.53v-1.77h7.42l-.22 1.76zm10.73 4.65C73.78 30 72.19 31 70 31h-3.4v-9.71h2.3v3.31h1c2.45 0 3.88 1 3.88 3.11zm-2.39 0c0-1-.53-1.54-1.65-1.54h-.84v3.14h.88a1.41 1.41 0 0 0 1.58-1.57zm14 .06c0 2.18-1.6 3.21-3.81 3.21h-3.38v-9.69h6.05L84 23h-3.47v1.72h1c2.47 0 3.89 1 3.89 3.07zm-2.4 0c0-1-.53-1.47-1.65-1.47h-.84v3h.88c1 0 1.59-.43 1.59-1.48zM91.8 31v-3.63a21.5 21.5 0 0 1 .32-3.82L89.33 31h-2.75v-9.71h2.25V25a20 20 0 0 1-.34 3.73l2.84-7.42h2.72V31zm11.42 0h-2.3v-8h-2l-.36 3.29c-.36 3.15-.92 4.45-3 4.92L95 29.63c1-.41 1.13-1.11 1.42-3.42l.58-4.92h6.25zm4.1-8.07v2.33h3v1.61h-3v2.48H111V31h-6v-9.71h6l-.24 1.64zm9.09.13V31h-2.3v-7.94h-2.51v-1.77h7.4l-.22 1.76z" fill="#fffff"/></svg>