<svg xmlns="http://www.w3.org/2000/svg" viewBox="0 0 101 43.01"><title>LogoBelBiz</title><path d="M9.65 38.44a5.74 5.74 0 0 1-.48 2.41 3.63 3.63 0 0 1-1.36 1.6 3.71 3.71 0 0 1-2 .56A3.54 3.54 0 0 1 3 41.76a5 5 0 0 1-1.11-3.36v-1a5.7 5.7 0 0 1 .48-2.4 3.58 3.58 0 0 1 3.39-2.18 3.72 3.72 0 0 1 2 .55 3.63 3.63 0 0 1 1.39 1.53 5.65 5.65 0 0 1 .5 2.34zm-.84-1.08A4.4 4.4 0 0 0 8 34.54a2.7 2.7 0 0 0-2.23-1 2.7 2.7 0 0 0-2.21 1 4.44 4.44 0 0 0-.82 2.85v1a4.39 4.39 0 0 0 .82 2.81 2.69 2.69 0 0 0 2.23 1 2.67 2.67 0 0 0 2.21-1 4.51 4.51 0 0 0 .8-2.85zm3.8 1.46v4h-.84v-10h3.39a3.57 3.57 0 0 1 2.45.79 3.12 3.12 0 0 1 0 4.34 3.68 3.68 0 0 1-2.51.76zm0-.71h2.55a2.69 2.69 0 0 0 1.84-.58 2.08 2.08 0 0 0 .64-1.62 2.18 2.18 0 0 0-.64-1.65 2.57 2.57 0 0 0-1.82-.63h-2.6zm13.79-4.48h-5.17v9.24h-.84v-10h6zm7.09 6.45H29l-1 2.8h-.88l3.77-10h.8l3.77 10h-.87zm-4.26-.71h4l-2-5.42zm15 3.51h-.85V38.1H37.7v4.77h-.84v-10h.84v4.47h5.69v-4.42h.85zm9.07-10h.84v10h-.84v-8.52l-5.67 8.52h-.85v-10h.85v8.51zm8.83 2.59a1.79 1.79 0 0 0-.67-1.47 3 3 0 0 0-1.93-.54 2.73 2.73 0 0 0-1.78.58A1.81 1.81 0 0 0 57 35.5h-.8a2.44 2.44 0 0 1 .43-1.42 2.86 2.86 0 0 1 1.21-1 4.57 4.57 0 0 1 4.22.37 2.44 2.44 0 0 1 .92 2 2.08 2.08 0 0 1-.49 1.35 2.86 2.86 0 0 1-1.31.88 2.31 2.31 0 0 1 1.94 2.4 2.5 2.5 0 0 1-1 2.06 4.1 4.1 0 0 1-2.62.77 4.29 4.29 0 0 1-1.82-.38 2.86 2.86 0 0 1-1.24-1A2.69 2.69 0 0 1 56 40h.84a2 2 0 0 0 .75 1.57 2.85 2.85 0 0 0 1.89.62 3.21 3.21 0 0 0 2-.57 1.84 1.84 0 0 0 .73-1.53 1.8 1.8 0 0 0-.65-1.52 3.32 3.32 0 0 0-2-.52h-1.2v-.72h1.23a3.18 3.18 0 0 0 1.89-.49 1.67 1.67 0 0 0 .65-1.37zM70.39 40h-4.51l-1 2.8H64l3.77-10h.8l3.77 10h-.87zm-4.26-.71h4l-2-5.42zm14.38-5.74h-3.4v9.24h-.84v-9.16h-3.4v-.71h7.66zm9 4.81a5.75 5.75 0 0 1-.51 2.49 3.63 3.63 0 0 1-1.36 1.6 3.71 3.71 0 0 1-2 .56 3.53 3.53 0 0 1-2.82-1.25 5 5 0 0 1-1.07-3.37v-1a5.73 5.73 0 0 1 .46-2.39 3.58 3.58 0 0 1 3.39-2.18 3.72 3.72 0 0 1 2 .55A3.64 3.64 0 0 1 89 34.9a5.63 5.63 0 0 1 .5 2.34zm-.84-1.08a4.4 4.4 0 0 0-.81-2.82 2.93 2.93 0 0 0-4.44 0 4.43 4.43 0 0 0-.82 2.85v1a4.39 4.39 0 0 0 .82 2.81 2.93 2.93 0 0 0 4.46 0 4.51 4.51 0 0 0 .8-2.85zm3.8 1.46v4h-.87v-10H95a3.58 3.58 0 0 1 2.45.79 2.76 2.76 0 0 1 .9 2.18 2.73 2.73 0 0 1-.87 2.29 3.67 3.67 0 0 1-2.5.76zm0-.71H95a2.69 2.69 0 0 0 1.87-.58 2.08 2.08 0 0 0 .64-1.62 2.17 2.17 0 0 0-.64-1.65 2.56 2.56 0 0 0-1.87-.55h-2.6zM15 13.54h.56l.48.05a7.93 7.93 0 0 1 4.27 1.83 5.67 5.67 0 0 1 2 4.61 6 6 0 0 1-2.4 5.11A10.91 10.91 0 0 1 13.2 27h-.63a5.57 5.57 0 0 1-.67-.12 4.91 4.91 0 0 1-.67-.06 2.22 2.22 0 0 0-.63 0c-.2 0-.41.12-.6.11s-.38.11-.57.11H0V25h1.68a2.38 2.38 0 0 0 .92 0c.23-.11.4-.36.4-1V5.28c0-.66-.17-1-.4-1.11A2.23 2.23 0 0 0 1.68 4H0V2h8.21c.15 0 .29.22.43.19s.28.11.43.1h1.05c.21 0 .42-.16.65-.16s.41-.18.62-.18H12a12.91 12.91 0 0 1 6.55 1.34 6.28 6.28 0 0 1 2.64 2.87 6.47 6.47 0 0 1 .26 1 5.52 5.52 0 0 1 .09.95 4.25 4.25 0 0 1-1.73 3.64A7.9 7.9 0 0 1 16 13.37h-1zM11.69 13c.16 0 .42-.27.77-.3a3.86 3.86 0 0 0 1.11-.45 3.94 3.94 0 0 0 1.6-1.25A4.48 4.48 0 0 0 16 8.4v-.2a5 5 0 0 0-1.16-2.88A4 4 0 0 0 11.43 4a6.71 6.71 0 0 0-1.87.24c-.49.16-.56.43-1.56.82v8zM8 24.38a5.79 5.79 0 0 1 1.5.77 5.78 5.78 0 0 0 2.05.33 3.73 3.73 0 0 0 2.81-1 5.66 5.66 0 0 0 1.32-2.14 7.63 7.63 0 0 0 .32-1.61c0-.51.07-.91.07-1.18v-1.08a6.4 6.4 0 0 0-.26-1.32A5.34 5.34 0 0 0 14.45 15a4.3 4.3 0 0 0-3.1-1H8zM28 18v1.33a7.2 7.2 0 0 0 1 3.84 4.53 4.53 0 0 0 1.82 1.68 3.32 3.32 0 0 0 1 .34 6.24 6.24 0 0 0 .85.07 4.55 4.55 0 0 0 2.66-.79 10.26 10.26 0 0 0 2.2-2.16l.93.65a9.55 9.55 0 0 1-2.71 2.86 7.35 7.35 0 0 1-4.39 1.25A8.07 8.07 0 0 1 25.94 25a7.57 7.57 0 0 1-2.37-6A8.54 8.54 0 0 1 26 12.58a7.87 7.87 0 0 1 5.64-2.33 8.68 8.68 0 0 1 .93.05 9.31 9.31 0 0 1 1 .15 7.11 7.11 0 0 1 3.29 2.2c1 1.05 1.57 2.39 1.68 5.39zm6-2v-.21a8.73 8.73 0 0 0-.57-3 2 2 0 0 0-2-1.37 2.06 2.06 0 0 0-1.93 1.11 7.32 7.32 0 0 0-.83 2.47 3.41 3.41 0 0 0-.11.5 2.22 2.22 0 0 1-.07.5zm5-14a6.18 6.18 0 0 0 1.56-.31L42 1.37c.5-.16.92-.34 1.43-.55S45 .38 45 .1v24.55a1.38 1.38 0 0 0 .4 1c.18.09.5.35.7.35h.9v1h-8v-1h1.17c.21 0 .39-.26.57-.35s.26-.58.26-1V4.08c0-.53-.08-.82-.26-.91a1.3 1.3 0 0 0-.6-.12H39zm26 9.62a10.18 10.18 0 0 1 2.53-1.11 8.87 8.87 0 0 1 2.06-.26 6.09 6.09 0 0 1 .91.07 4.08 4.08 0 0 1 .9.17A8.12 8.12 0 0 1 75.18 13 8.32 8.32 0 0 1 77 18.48v.33c0 .1-.22.21-.24.33a9.52 9.52 0 0 1-2.4 5.5 7.15 7.15 0 0 1-5.74 2.49 13.92 13.92 0 0 1-2.44-.24 5.93 5.93 0 0 1-2.77-1.27L61.6 27H61V3.6c0-.16-.1-.25-.21-.4S60.36 3 60 3h-1V1.92a3.39 3.39 0 0 1 .67-.12 2.07 2.07 0 0 0 .56-.12l.84-.21.76-.21a13.3 13.3 0 0 0 1.41-.51A10.54 10.54 0 0 1 65 0zm0 12.82c0 .46.66.88 1.09 1.14a3 3 0 0 0 1.47.46h.21a3.64 3.64 0 0 0 2.69-1.81c.81-1.1 1.22-3 1.22-5.76v-.74a3.83 3.83 0 0 0-.05-.76 8.57 8.57 0 0 0-.94-3.36A3 3 0 0 0 67.81 12h-.31a5 5 0 0 0-1.33.32c-.41.13-1.16.35-1.16.56z" fill="#fff"/><path d="M79 14.26a1.87 1.87 0 0 0-.11-.9c-.11-.14-.19-.36-.35-.36H77v-.87a7.62 7.62 0 0 0 1.8-.31c.56-.14 1.23-.3 1.8-.48a11.1 11.1 0 0 0 1.22-.53c.46-.19 1.18-.39 1.18-.6v14.4a1.39 1.39 0 0 0 .48 1 2.67 2.67 0 0 0 .79.35H85v1h-8V26h1.33c.21 0 .3-.26.49-.35s.18-.58.18-1zm3.7-8a2.44 2.44 0 0 1-3.45 0 2.41 2.41 0 0 1-.7-1.75 2.47 2.47 0 0 1 4.2-1.7 2.37 2.37 0 0 1 .67 1.7 2.41 2.41 0 0 1-.71 1.77zM88 15l.24-4H101v.89L92 26h1.54c.37 0 .82-.26 1.35-.34a10.16 10.16 0 0 0 1.63-.5 8.48 8.48 0 0 0 1.54-.71 5.48 5.48 0 0 0 1.3-1.21l.07-1.24h1.23l-.24 5H87v-1.5L96 12h-1.1a6.68 6.68 0 0 0-1 0 8.15 8.15 0 0 0-1 .15 9.77 9.77 0 0 0-2.21.78 3.28 3.28 0 0 0-1.46 1.2V15z" fill="#fff"/><circle cx="53.72" cy="22.63" r="4.43" fill="#f9ad1c"/></svg>