<svg xmlns="http://www.w3.org/2000/svg" viewBox="0 0 300 390"><title>member_bg</title><path d="M300 312l-52.5 12.88-16 65.13h-48.43l20.43-83.26a35.15 35.15 0 0 1 25.89-25.87L300 263.54zM282.09 37.73a35.29 35.29 0 0 0-58-29.4L127.8 89.58 11.1 42.54A35.25 35.25 0 0 0 0 40.06v134.82l12.2 30.28L0 219.63v73l52.74-62.53a35.25 35.25 0 0 0 5.77-36L19.16 96.54l97.63 39.35a35.24 35.24 0 0 0 35.93-5.78l80.5-67.89-7.29 105.34A35.22 35.22 0 0 0 242.52 200L300 235.7v-55.41l-26.62-16.55zM122.6 319.89a35.25 35.25 0 0 0-32.41-16.57L0 309.55v47.17l86.37-6 24.4 39.28h55.41z" fill="#3ff" opacity=".08"/></svg>