<svg xmlns="http://www.w3.org/2000/svg" viewBox="0 0 320 595.08"><title>ticket_bg</title><path d="M320 404.72L143.53 581.19a47.45 47.45 0 0 1-67.1 0l-45.27-45.27a47.45 47.45 0 0 1 3.17-70c.71-.59 1.43-1.2 2.09-1.86a30.37 30.37 0 0 0-21.47-51.84A30.17 30.17 0 0 0 0 416.16v-49.93a77.82 77.82 0 0 1 70 131.39c-1.69 1.69-3.46 3.25-5.25 4.75L110 547.64l210-210zM0 257.47l210-210 45 45c-30 30-30.39 79.66 0 110a77.46 77.46 0 0 0 55 22.65 79.12 79.12 0 0 0 10-.65v-48.38a31.27 31.27 0 0 1-10 1.62A30.37 30.37 0 0 1 288.59 126a47.44 47.44 0 0 0 0-67.1l-45-45a47.45 47.45 0 0 0-67.1 0L0 190.37zm174.93-8.41l-57.37 57.39A23.72 23.72 0 1 0 151.1 340l57.37-57.39a23.72 23.72 0 0 0-33.55-33.55z" fill="#3ff" opacity=".05"/></svg>