<svg xmlns="http://www.w3.org/2000/svg" viewBox="0 0 1440.09 1440.08"><title>tik_bg</title><path d="M841.09 114.82L950 223.76c-72.63 72.62-73.54 192.76 0 266.3a189.13 189.13 0 0 0 266.3 0L1325.27 599 599 1325.26l-109.55-109.55c4.35-3.63 8.63-7.41 12.72-11.49 73.54-73.54 73.54-192.76 0-266.3a188.3 188.3 0 0 0-266.3 0c-4.09 4.09-7.86 8.36-11.49 12.71L114.82 841.09l726.27-726.27m0-114.82a114.47 114.47 0 0 0-81.19 33.63L33.63 759.9a114.82 114.82 0 0 0 0 162.38l109.55 109.55a114.83 114.83 0 0 0 81.18 33.63c1.72 0 3.44 0 5.17-.12a114.78 114.78 0 0 0 83-41.13c1.44-1.72 2.89-3.45 4.51-5.07A73.48 73.48 0 1 1 421 1123c-1.6 1.6-3.33 3.06-5.05 4.49a114.82 114.82 0 0 0-7.66 169.38l109.55 109.55a114.82 114.82 0 0 0 162.38 0l726.27-726.27a114.82 114.82 0 0 0 0-162.38l-108.97-108.9a114.81 114.81 0 0 0-162.38 0 73.49 73.49 0 0 1-103.92-103.92 114.81 114.81 0 0 0 0-162.38L922.28 33.63A114.47 114.47 0 0 0 841.09 0zM698.51 822.75l138.84-138.87a57.4 57.4 0 1 0-81.18-81.18L617.33 741.57a57.4 57.4 0 1 0 81.18 81.18z" fill="#3ff" opacity=".05"/></svg>