<svg xmlns="http://www.w3.org/2000/svg" xmlns:xlink="http://www.w3.org/1999/xlink" viewBox="0 0 180.31 48.44"><defs><clipPath id="a"><rect x="-0.9" y="-0.41" width="48" height="47" style="fill:none"/></clipPath></defs><title>LogoGew_1</title><g style="clip-path:url(#a)"><g style="clip-path:url(#a)"><path d="M25.69.27a23.1,23.1,0,0,1,5.07,1.09l-2.2,6.52A16.14,16.14,0,0,0,25,7.13Z" style="fill:#facbcb;fill-rule:evenodd"/><path d="M25.69.27a23.1,23.1,0,0,1,5.07,1.09l-2.2,6.52A16.14,16.14,0,0,0,25,7.13Z" style="fill:none;stroke:#facbcb;stroke-miterlimit:3.86400008201599;stroke-width:0.312000006437302px"/><path d="M30.77,1.37l.73.26L29.08,8.06l-.51-.18Z" style="fill:#fff;fill-rule:evenodd"/><path d="M31.5,1.63q.56.21,1.11.45l-2.75,6.3-.78-.31Z" style="fill:#93d6e6;fill-rule:evenodd"/><path d="M31.5,1.63q.56.21,1.11.45l-2.75,6.3-.78-.31Z" style="fill:none;stroke:#93d6e6;stroke-miterlimit:3.86400008201599;stroke-width:0.312000006437302px"/><path d="M32.62,2.08a23.15,23.15,0,0,1,5.16,3.11l-4.27,5.36a16.18,16.18,0,0,0-3.64-2.18Z" style="fill:#93d6e6;fill-rule:evenodd"/><path d="M32.62,2.08a23.15,23.15,0,0,1,5.16,3.11l-4.27,5.36a16.18,16.18,0,0,0-3.64-2.18Z" style="fill:none;stroke:#93d6e6;stroke-miterlimit:3.86400008201599;stroke-width:0.312000006437302px"/><path d="M42,9.55q.27.37.53.74l-5.67,3.85-.37-.52Z" style="fill:#7f1e5c;fill-rule:evenodd"/><path d="M42,9.55q.27.37.53.74l-5.67,3.85-.37-.52Z" style="fill:none;stroke:#7f1e5c;stroke-miterlimit:3.86400008201599;stroke-width:0.312000006437302px"/><path d="M42.53,10.3a23.16,23.16,0,0,1,2.36,4.43l-6.37,2.54a16.12,16.12,0,0,0-1.66-3.13Z" style="fill:#fff;fill-rule:evenodd"/><path d="M42.53,10.3a23.16,23.16,0,0,1,2.36,4.43l-6.37,2.54a16.12,16.12,0,0,0-1.66-3.13Z" style="fill:none;stroke:#fff;stroke-miterlimit:3.86400008201599;stroke-width:0.312000006437302px"/><path d="M44.89,14.74q.42,1.06.75,2.17L39,18.81a16,16,0,0,0-.52-1.53Z" style="fill:#b0bfc8;fill-rule:evenodd"/><path d="M44.89,14.74q.42,1.06.75,2.17L39,18.81a16,16,0,0,0-.52-1.53Z" style="fill:none;stroke:#b0bfc8;stroke-miterlimit:3.86400008201599;stroke-width:0.312000006437302px"/><path d="M46.55,23.35a23.24,23.24,0,0,1-.65,5.49l-6.71-1.63a16.19,16.19,0,0,0,.49-4V23l6.88-.15c0,.17,0,.34,0,.51" style="fill:#e1e2e3;fill-rule:evenodd"/><path d="M46.55,23.35a23.24,23.24,0,0,1-.65,5.49l-6.71-1.63a16.19,16.19,0,0,0,.49-4V23l6.88-.15C46.54,23,46.55,23.18,46.55,23.35Z" style="fill:none;stroke:#e1e2e3;stroke-miterlimit:3.86400008201599;stroke-width:0.312000006437302px"/><path d="M45.89,28.85a23,23,0,0,1-1.26,3.75l-6.36-2.76a16.1,16.1,0,0,0,.91-2.62Z" style="fill:#f3ea27;fill-rule:evenodd"/><path d="M45.89,28.85a23,23,0,0,1-1.26,3.75l-6.36-2.76a16.1,16.1,0,0,0,.91-2.62Z" style="fill:none;stroke:#f3ea27;stroke-miterlimit:3.86400008201599;stroke-width:0.312000006437302px"/><path d="M44.63,32.6A23.1,23.1,0,0,1,43.41,35l-6-3.49a16.17,16.17,0,0,0,.87-1.68Z" style="fill:#d5de2a;fill-rule:evenodd"/><path d="M44.63,32.6A23.1,23.1,0,0,1,43.41,35l-6-3.49a16.17,16.17,0,0,0,.87-1.68Z" style="fill:none;stroke:#d5de2a;stroke-miterlimit:3.86400008201599;stroke-width:0.312000006437302px"/><path d="M29.69,45.67l-.65.17L27.3,39l.45-.12Z" style="fill:#78431c;fill-rule:evenodd"/><path d="M29.69,45.67l-.65.17L27.3,39l.45-.12Z" style="fill:none;stroke:#78431c;stroke-miterlimit:3.86400008201599;stroke-width:0.312000006437302px"/><path d="M20.63,46.39a23,23,0,0,1-4-.83l2.06-6.83a16.11,16.11,0,0,0,2.76.59Z" style="fill:#8da2ad;fill-rule:evenodd"/><path d="M20.63,46.39a23,23,0,0,1-4-.83l2.06-6.83a16.11,16.11,0,0,0,2.76.59Z" style="fill:none;stroke:#8da2ad;stroke-miterlimit:3.86400008201599;stroke-width:0.312000006437302px"/><path d="M16.63,45.56q-1-.31-2-.72l2.69-6.61q.69.29,1.41.51Z" style="fill:#c52128;fill-rule:evenodd"/><path d="M16.63,45.56q-1-.31-2-.72l2.69-6.61q.69.29,1.41.51Z" style="fill:none;stroke:#c52128;stroke-miterlimit:3.86400008201599;stroke-width:0.312000006437302px"/><path d="M10.7,42.8l3.89-6a16.06,16.06,0,0,0,2.68,1.42l-2.69,6.61a23.1,23.1,0,0,1-3.89-2" style="fill:#eb6a56;fill-rule:evenodd"/><path d="M10.7,42.8l3.89-6a16.06,16.06,0,0,0,2.68,1.42l-2.69,6.61A23.1,23.1,0,0,1,10.7,42.8Z" style="fill:none;stroke:#eb6a56;stroke-miterlimit:3.86400008201599;stroke-width:0.312000006437302px"/><path d="M10.69,42.79l-.85-.58L14,36.39l.59.4Z" style="fill:#c9652b;fill-rule:evenodd"/><path d="M10.69,42.79l-.85-.58L14,36.39l.59.4Z" style="fill:none;stroke:#c9652b;stroke-miterlimit:3.86400008201599;stroke-width:0.312000006437302px"/><path d="M9.84,42.2a23.32,23.32,0,0,1-2.42-2L12.33,35A16.22,16.22,0,0,0,14,36.39Z" style="fill:#d5de2a;fill-rule:evenodd"/><path d="M9.84,42.2a23.32,23.32,0,0,1-2.42-2L12.33,35A16.22,16.22,0,0,0,14,36.39Z" style="fill:none;stroke:#d5de2a;stroke-miterlimit:3.86400008201599;stroke-width:0.312000006437302px"/><path d="M7.41,40.2A23.27,23.27,0,0,1,2.25,33l6.5-3a16.22,16.22,0,0,0,3.57,5Z" style="fill:#ec2f27;fill-rule:evenodd"/><path d="M7.41,40.2A23.27,23.27,0,0,1,2.25,33l6.5-3a16.22,16.22,0,0,0,3.57,5Z" style="fill:none;stroke:#ec2f27;stroke-miterlimit:3.86400008201599;stroke-width:0.312000006437302px"/><path d="M2.25,33,2,32.33l6.59-2.77.2.46Z" style="fill:#c52d2c;fill-rule:evenodd"/><path d="M2.25,33,2,32.33l6.59-2.77.2.46Z" style="fill:none;stroke:#c52d2c;stroke-miterlimit:3.86400008201599;stroke-width:0.312000006437302px"/><path d="M2,32.32a23,23,0,0,1-1.26-4l7-1.54a16.14,16.14,0,0,0,.88,2.74Z" style="fill:#f8e2b0;fill-rule:evenodd"/><path d="M2,32.32a23,23,0,0,1-1.26-4l7-1.54a16.14,16.14,0,0,0,.88,2.74Z" style="fill:none;stroke:#f8e2b0;stroke-miterlimit:3.86400008201599;stroke-width:0.312000006437302px"/><path d="M.16,23.35a23.43,23.43,0,0,1,.16-2.78l7.06.85a16.34,16.34,0,0,0-.1,1.83c0,.24,0,.48,0,.72l-7.12.28q0-.45,0-.9" style="fill:#d58528;fill-rule:evenodd"/><path d="M.16,23.35a23.43,23.43,0,0,1,.16-2.78l7.06.85a16.34,16.34,0,0,0-.1,1.83c0,.24,0,.48,0,.72l-7.12.28Q.16,23.81.16,23.35Z" style="fill:none;stroke:#d58528;stroke-miterlimit:3.86400008201599;stroke-width:0.312000006437302px"/><path d="M.32,20.57a23.06,23.06,0,0,1,.86-4.06L8,18.6a16.12,16.12,0,0,0-.58,2.82Z" style="fill:#ec2f27;fill-rule:evenodd"/><path d="M.32,20.57a23.06,23.06,0,0,1,.86-4.06L8,18.6a16.12,16.12,0,0,0-.58,2.82Z" style="fill:none;stroke:#ec2f27;stroke-miterlimit:3.86400008201599;stroke-width:0.312000006437302px"/><path d="M2.78,12.62q.47-.91,1-1.77l5.94,3.8q-.38.6-.7,1.23Z" style="fill:#f1b698;fill-rule:evenodd"/><path d="M2.78,12.62q.47-.91,1-1.77l5.94,3.8q-.38.6-.7,1.23Z" style="fill:none;stroke:#f1b698;stroke-miterlimit:3.86400008201599;stroke-width:0.312000006437302px"/><path d="M3.81,10.85q.41-.63.85-1.24l5.67,4.18q-.31.42-.58.87Z" style="fill:#f5a1b6;fill-rule:evenodd"/><path d="M3.81,10.85q.41-.63.85-1.24l5.67,4.18q-.31.42-.58.87Z" style="fill:none;stroke:#f5a1b6;stroke-miterlimit:3.86400008201599;stroke-width:0.312000006437302px"/><path d="M4.67,9.61A23.33,23.33,0,0,1,8.74,5.34l4.41,5.44a16.29,16.29,0,0,0-2.81,3Z" style="fill:#f5a1b6;fill-rule:evenodd"/><path d="M4.67,9.61A23.33,23.33,0,0,1,8.74,5.34l4.41,5.44a16.29,16.29,0,0,0-2.81,3Z" style="fill:none;stroke:#f5a1b6;stroke-miterlimit:3.86400008201599;stroke-width:0.312000006437302px"/><path d="M8.74,5.33Q9.62,4.62,10.56,4l3.85,5.84q-.65.44-1.26.94Z" style="fill:#f9c9d3;fill-rule:evenodd"/><path d="M8.74,5.33Q9.62,4.62,10.56,4l3.85,5.84q-.65.44-1.26.94Z" style="fill:none;stroke:#f9c9d3;stroke-miterlimit:3.86400008201599;stroke-width:0.312000006437302px"/><path d="M10.57,4l.78-.49,3.61,6-.54.35Z" style="fill:#8d80b3;fill-rule:evenodd"/><path d="M10.57,4l.78-.49,3.61,6-.54.35Z" style="fill:none;stroke:#8d80b3;stroke-miterlimit:3.86400008201599;stroke-width:0.312000006437302px"/><path d="M11.35,3.5l.8-.46,3.36,6.12L15,9.48Z" style="fill:#817087;fill-rule:evenodd"/><path d="M11.35,3.5l.8-.46,3.36,6.12L15,9.48Z" style="fill:none;stroke:#817087;stroke-miterlimit:3.86400008201599;stroke-width:0.312000006437302px"/><path d="M12.15,3q.94-.52,1.92-.95l2.78,6.39q-.68.31-1.34.68Z" style="fill:#fff;fill-rule:evenodd"/><path d="M12.15,3q.94-.52,1.92-.95l2.78,6.39q-.68.31-1.34.68Z" style="fill:none;stroke:#fff;stroke-miterlimit:3.86400008201599;stroke-width:0.312000006437302px"/><path d="M14.08,2.08q.55-.24,1.1-.45l2.44,6.52-.77.32Z" style="fill:#5571b6;fill-rule:evenodd"/><path d="M14.08,2.08q.55-.24,1.1-.45l2.44,6.52-.77.32Z" style="fill:none;stroke:#5571b6;stroke-miterlimit:3.86400008201599;stroke-width:0.312000006437302px"/><path d="M15.19,1.63A23,23,0,0,1,20,.4l1,6.86a16.09,16.09,0,0,0-3.33.89Z" style="fill:#859ace;fill-rule:evenodd"/><path d="M15.19,1.63A23,23,0,0,1,20,.4l1,6.86a16.09,16.09,0,0,0-3.33.89Z" style="fill:none;stroke:#859ace;stroke-miterlimit:3.86400008201599;stroke-width:0.312000006437302px"/><path d="M25.68.27,25,7.13q-.74-.07-1.51-.07h-.6L22.68.17h.67q1.18,0,2.33.12" style="fill:#8d80b3;fill-rule:evenodd"/><path d="M25.68.27,25,7.13q-.74-.07-1.51-.07h-.6L22.68.17h.67Q24.53.16,25.68.27Z" style="fill:none;stroke:#8d80b3;stroke-miterlimit:3.86400008201599;stroke-width:0.312000006437302px"/><path d="M22.67.17l.19,6.91-.76,0L21.59.22,22.67.17" style="fill:#5e64a6;fill-rule:evenodd"/><path d="M22.67.17l.19,6.91-.76,0L21.59.22Z" style="fill:none;stroke:#5e64a6;stroke-miterlimit:3.86400008201599;stroke-width:0.312000006437302px"/><path d="M20,.4l1-.12.71,6.89L21,7.26Z" style="fill:#5571b6;fill-rule:evenodd"/><path d="M20,.4l1-.12.71,6.89L21,7.26Z" style="fill:none;stroke:#5571b6;stroke-miterlimit:3.86400008201599;stroke-width:0.312000006437302px"/><path d="M21.58.22l.52,6.9-.44,0L21,.28l.62-.06" style="fill:#3870ac;fill-rule:evenodd"/><path d="M21.58.22l.52,6.9-.44,0L21,.28Z" style="fill:none;stroke:#3870ac;stroke-miterlimit:3.86400008201599;stroke-width:0.312000006437302px"/><path d="M2.78,12.63,9,15.9l-.13.26L2.59,13l.19-.37" style="fill:#f8e2b0;fill-rule:evenodd"/><path d="M2.78,12.63,9,15.9l-.13.26L2.59,13Z" style="fill:none;stroke:#f8e2b0;stroke-miterlimit:3.86400008201599;stroke-width:0.312000006437302px"/><path d="M1.18,16.5q.18-.59.4-1.17l6.65,2.45q-.14.4-.27.81Z" style="fill:#f89e20;fill-rule:evenodd"/><path d="M1.18,16.5q.18-.59.4-1.17l6.65,2.45q-.14.4-.27.81Z" style="fill:none;stroke:#f89e20;stroke-miterlimit:3.86400008201599;stroke-width:0.312000006437302px"/><path d="M8.23,17.78,1.58,15.33a23,23,0,0,1,1-2.32l6.33,3.16a16.1,16.1,0,0,0-.68,1.62" style="fill:#d58528;fill-rule:evenodd"/><path d="M8.23,17.78,1.58,15.33a23,23,0,0,1,1-2.32l6.33,3.16A16.1,16.1,0,0,0,8.23,17.78Z" style="fill:none;stroke:#d58528;stroke-miterlimit:3.86400008201599;stroke-width:0.312000006437302px"/><path d="M20.64,46.39l.83-7.06a16.44,16.44,0,0,0,2,.12q.79,0,1.56-.07l.75,7a23.5,23.5,0,0,1-5.15,0" style="fill:#492d16;fill-rule:evenodd"/><path d="M20.64,46.39l.83-7.06a16.44,16.44,0,0,0,2,.12q.79,0,1.56-.07l.75,7a23.5,23.5,0,0,1-5.15,0Z" style="fill:none;stroke:#492d16;stroke-miterlimit:3.86400008201599;stroke-width:0.312000006437302px"/><path d="M29,45.85a23,23,0,0,1-3.23.57l-.75-7A16.25,16.25,0,0,0,27.29,39Z" style="fill:#78431c;fill-rule:evenodd"/><path d="M29,45.85a23,23,0,0,1-3.23.57l-.75-7A16.25,16.25,0,0,0,27.29,39Z" style="fill:none;stroke:#78431c;stroke-miterlimit:3.86400008201599;stroke-width:0.312000006437302px"/><path d="M37.79,5.2a23.36,23.36,0,0,1,2.38,2.18l-5,4.71a16.31,16.31,0,0,0-1.68-1.53Z" style="fill:#93d6e6;fill-rule:evenodd"/><path d="M37.79,5.2a23.36,23.36,0,0,1,2.38,2.18l-5,4.71a16.31,16.31,0,0,0-1.68-1.53Z" style="fill:none;stroke:#93d6e6;stroke-miterlimit:3.86400008201599;stroke-width:0.312000006437302px"/><path d="M42,9.55l-5.51,4.07a16.33,16.33,0,0,0-1.28-1.53l5-4.71A23.3,23.3,0,0,1,42,9.55" style="fill:#a72171;fill-rule:evenodd"/><path d="M42,9.55l-5.51,4.07a16.33,16.33,0,0,0-1.28-1.53l5-4.71A23.3,23.3,0,0,1,42,9.55Z" style="fill:none;stroke:#a72171;stroke-miterlimit:3.86400008201599;stroke-width:0.312000006437302px"/><path d="M.7,28.35q-.22-1-.35-2l7.07-.93q.09.7.25,1.38Z" style="fill:#fff;fill-rule:evenodd"/><path d="M.7,28.35q-.22-1-.35-2l7.07-.93q.09.7.25,1.38Z" style="fill:none;stroke:#fff;stroke-miterlimit:3.86400008201599;stroke-width:0.312000006437302px"/><path d="M.17,24.26,7.29,24q0,.73.13,1.44l-7.07.93q-.13-1-.17-2.09" style="fill:#f89e20;fill-rule:evenodd"/><path d="M.17,24.26,7.29,24q0,.73.13,1.44l-7.07.93Q.21,25.32.17,24.26Z" style="fill:none;stroke:#f89e20;stroke-miterlimit:3.86400008201599;stroke-width:0.312000006437302px"/><path d="M43.41,35a23.28,23.28,0,0,1-2.74,3.77l-5.21-4.64a16.18,16.18,0,0,0,1.94-2.62Z" style="fill:#f3ea27;fill-rule:evenodd"/><path d="M43.41,35a23.28,23.28,0,0,1-2.74,3.77l-5.21-4.64a16.18,16.18,0,0,0,1.94-2.62Z" style="fill:none;stroke:#f3ea27;stroke-miterlimit:3.86400008201599;stroke-width:0.312000006437302px"/><path d="M29.69,45.67l-1.94-6.79a16.19,16.19,0,0,0,7.7-4.73l5.21,4.64a23.2,23.2,0,0,1-11,6.88" style="fill:#e1e2e3;fill-rule:evenodd"/><path d="M29.69,45.67l-1.94-6.79a16.19,16.19,0,0,0,7.7-4.73l5.21,4.64A23.2,23.2,0,0,1,29.69,45.67Z" style="fill:none;stroke:#e1e2e3;stroke-miterlimit:3.86400008201599;stroke-width:0.312000006437302px"/><path d="M39.49,20.91l6.79-1a23.45,23.45,0,0,1,.25,3L39.66,23a16.12,16.12,0,0,0-.17-2.08" style="fill:#5a96a5;fill-rule:evenodd"/><path d="M39.49,20.91l6.79-1a23.45,23.45,0,0,1,.25,3L39.66,23A16.12,16.12,0,0,0,39.49,20.91Z" style="fill:none;stroke:#5a96a5;stroke-miterlimit:3.86400008201599;stroke-width:0.312000006437302px"/><path d="M45.64,16.92a23.12,23.12,0,0,1,.64,3l-6.79,1A16.26,16.26,0,0,0,39,18.82Z" style="fill:#009bc8;fill-rule:evenodd"/><path d="M45.64,16.92a23.12,23.12,0,0,1,.64,3l-6.79,1A16.26,16.26,0,0,0,39,18.82Z" style="fill:none;stroke:#009bc8;stroke-miterlimit:3.86400008201599;stroke-width:0.312000006437302px"/></g></g><text transform="translate(57.6 11.11)" style="font-size:10.165499687194824px;font-family:PFBagueSansPro-Thin, PF Bague Sans Pro">ВСЕМИРНАЯ НЕДЕЛЯ<tspan x="0" y="12.2">ПРЕДПРИНИМ</tspan><tspan x="67.38" y="12.2" style="letter-spacing:-0.05994540541549684em">А</tspan><tspan x="72.86" y="12.2">ТЕЛЬСТВА </tspan><tspan style="font-size:21.39423942565918px"><tspan x="0" y="32.17">В БЕЛАРУСИ</tspan></tspan></text></svg>