<?xml version="1.0" encoding="UTF-8"?><!DOCTYPE svg PUBLIC "-//W3C//DTD SVG 1.1//EN" "http://www.w3.org/Graphics/SVG/1.1/DTD/svg11.dtd"><svg xmlns="http://www.w3.org/2000/svg"><defs><style>.cls-1{fill:#3ff}</style><style>.cls-1{fill:#3ff}.cls-2{fill:#25233a}</style><style>.cls-1{fill:#3ff}</style><style>.cls-1{fill:#fff}</style><style>.cls-1{fill:#fff}.cls-2{fill:#f9ad1c}</style><style>.cls-1,.cls-10,.cls-12,.cls-14,.cls-16,.cls-18,.cls-20,.cls-22,.cls-24,.cls-26,.cls-28,.cls-30,.cls-32,.cls-34,.cls-36,.cls-38,.cls-4,.cls-40,.cls-42,.cls-44,.cls-46,.cls-48,.cls-50,.cls-52,.cls-54,.cls-56,.cls-58,.cls-60,.cls-62,.cls-64,.cls-7,.cls-9{fill:none}.cls-2{clip-path:url(#clip-path)}.cls-3{fill:#facbcb}.cls-11,.cls-13,.cls-15,.cls-17,.cls-19,.cls-21,.cls-23,.cls-25,.cls-27,.cls-29,.cls-3,.cls-31,.cls-33,.cls-35,.cls-37,.cls-39,.cls-41,.cls-43,.cls-45,.cls-47,.cls-49,.cls-5,.cls-51,.cls-53,.cls-55,.cls-57,.cls-59,.cls-6,.cls-61,.cls-63,.cls-8{fill-rule:evenodd}.cls-4{stroke:#facbcb}.cls-10,.cls-12,.cls-14,.cls-16,.cls-18,.cls-20,.cls-22,.cls-24,.cls-26,.cls-28,.cls-30,.cls-32,.cls-34,.cls-36,.cls-38,.cls-4,.cls-40,.cls-42,.cls-44,.cls-46,.cls-48,.cls-50,.cls-52,.cls-54,.cls-56,.cls-58,.cls-60,.cls-62,.cls-64,.cls-7,.cls-9{stroke-miterlimit:3.86;stroke-width:.31px}.cls-5,.cls-65{fill:#fff}.cls-6{fill:#93d6e6}.cls-7{stroke:#93d6e6}.cls-8{fill:#7f1e5c}.cls-9{stroke:#7f1e5c}.cls-10{stroke:#fff}.cls-11{fill:#b0bfc8}.cls-12{stroke:#b0bfc8}.cls-13{fill:#e1e2e3}.cls-14{stroke:#e1e2e3}.cls-15{fill:#f3ea27}.cls-16{stroke:#f3ea27}.cls-17{fill:#d5de2a}.cls-18{stroke:#d5de2a}.cls-19{fill:#78431c}.cls-20{stroke:#78431c}.cls-21{fill:#8da2ad}.cls-22{stroke:#8da2ad}.cls-23{fill:#c52128}.cls-24{stroke:#c52128}.cls-25{fill:#eb6a56}.cls-26{stroke:#eb6a56}.cls-27{fill:#c9652b}.cls-28{stroke:#c9652b}.cls-29{fill:#ec2f27}.cls-30{stroke:#ec2f27}.cls-31{fill:#c52d2c}.cls-32{stroke:#c52d2c}.cls-33{fill:#f8e2b0}.cls-34{stroke:#f8e2b0}.cls-35{fill:#d58528}.cls-36{stroke:#d58528}.cls-37{fill:#f1b698}.cls-38{stroke:#f1b698}.cls-39{fill:#f5a1b6}.cls-40{stroke:#f5a1b6}.cls-41{fill:#f9c9d3}.cls-42{stroke:#f9c9d3}.cls-43{fill:#8d80b3}.cls-44{stroke:#8d80b3}.cls-45{fill:#817087}.cls-46{stroke:#817087}.cls-47{fill:#5571b6}.cls-48{stroke:#5571b6}.cls-49{fill:#859ace}.cls-50{stroke:#859ace}.cls-51{fill:#5e64a6}.cls-52{stroke:#5e64a6}.cls-53{fill:#3870ac}.cls-54{stroke:#3870ac}.cls-55{fill:#f89e20}.cls-56{stroke:#f89e20}.cls-57{fill:#492d16}.cls-58{stroke:#492d16}.cls-59{fill:#a72171}.cls-60{stroke:#a72171}.cls-61{fill:#5a96a5}.cls-62{stroke:#5a96a5}.cls-63{fill:#009bc8}.cls-64{stroke:#009bc8}.cls-65{font-size:6.21px;font-family:PFBagueSansPro-Thin,PF Bague Sans Pro}.cls-66{letter-spacing:-.06em}.cls-67{font-size:13.06px}</style><clipPath id="clip-path"><path class="cls-1" d="M.11.11h28v28h-28z"/></clipPath><style>.cls-1{fill:#3ff}</style><style>.cls-1{fill:#fff}</style><style>.cls-1{fill:#fff}</style><style>.cls-1{fill:#3ff}</style><style>.cls-1{fill:#3ff}</style><style>.cls-1{fill:#3ff}</style></defs><symbol id="BtnBuy" viewBox="0 0 142 52"><title>BtnBuy</title><g id="Layer_2" data-name="Layer 2"><path class="cls-1" d="M139 52H3a3 3 0 0 1-3-3V37.86a3 3 0 0 1 2.46-3 9 9 0 0 0 0-17.76 3 3 0 0 1-2.46-3V3a3 3 0 0 1 3-3h136a3 3 0 0 1 3 3v11.14a3 3 0 0 1-2.46 3 9 9 0 0 0 0 17.76 3 3 0 0 1 2.46 3V49a3 3 0 0 1-3 3zM3 2a1 1 0 0 0-1 1v11.14a1 1 0 0 0 .78 1 11 11 0 0 1 0 21.71 1 1 0 0 0-.78 1V49a1 1 0 0 0 1 1h136a1 1 0 0 0 1-1V37.86a1 1 0 0 0-.78-1 11 11 0 0 1 0-21.71 1 1 0 0 0 .78-1V3a1 1 0 0 0-1-1zm28.77 29h-2.51l-2.09-4.22h-1V31h-2.3v-9.71h2.3v3.81h1.07l2-3.81h2.26l-2.39 4.4zm1.3.24l-.31-1.54c1.22-.15 1.79-.45 2.24-1.26h-.73l-3-7.14h2.37l2 5.84 1.78-5.84h2.32l-2.54 6.8c-.85 2.28-1.95 2.9-4.13 3.14zM45.64 31v-7.94h-2.88V31h-2.3v-9.71h7.48V31zM55 31v-3.63a21.5 21.5 0 0 1 .32-3.82L52.52 31h-2.76v-9.71H52V25a20.06 20.06 0 0 1-.34 3.73l2.84-7.42h2.72V31zm8.08-7.94V31h-2.3v-7.94h-2.53v-1.77h7.42l-.22 1.76zm10.73 4.65C73.78 30 72.19 31 70 31h-3.4v-9.71h2.3v3.31h1c2.45 0 3.88 1.01 3.88 3.11zm-2.39 0c0-1-.53-1.54-1.65-1.54h-.84v3.14h.88a1.41 1.41 0 0 0 1.58-1.57zm14 .06c0 2.18-1.6 3.21-3.81 3.21h-3.38v-9.69h6.05L84 23h-3.47v1.72h1c2.47.03 3.89 1.04 3.89 3.07zm-2.4 0c0-1-.53-1.47-1.65-1.47h-.84v3h.88c1.02.03 1.59-.43 1.59-1.48zM91.8 31v-3.63a21.5 21.5 0 0 1 .32-3.82L89.33 31h-2.75v-9.71h2.25V25a20 20 0 0 1-.34 3.73l2.84-7.42h2.72V31zm11.42 0h-2.3v-8h-2l-.36 3.29c-.36 3.15-.92 4.45-3 4.92L95 29.63c1-.41 1.13-1.11 1.42-3.42l.58-4.92h6.25zm4.1-8.07v2.33h3v1.61h-3v2.48H111V31h-6v-9.71h6l-.24 1.64zm9.09.13V31h-2.3v-7.94h-2.51v-1.77h7.4l-.22 1.76z" id="Mobile"/></g></symbol><symbol id="BtnBuyActive" viewBox="0 0 142 52"><title>BtnBuyActive</title><g id="Layer_2" data-name="Layer 2"><g id="Mobile"><path class="cls-1" d="M139.54 17.12a3 3 0 0 0 2.46-3V3a3 3 0 0 0-3-3H3a3 3 0 0 0-3 3v11.14a3 3 0 0 0 2.46 3 9 9 0 0 1 0 17.76 3 3 0 0 0-2.46 3V49a3 3 0 0 0 3 3h136a3 3 0 0 0 3-3V37.86a3 3 0 0 0-2.46-3 9 9 0 0 1 0-17.76z"/><path class="cls-2" d="M31.77 31h-2.51l-2.09-4.22h-1V31h-2.3v-9.71h2.3v3.81h1.07l2-3.81h2.26l-2.39 4.4zm1.3.24l-.31-1.54c1.22-.15 1.79-.45 2.24-1.26h-.73l-3-7.14h2.37l2 5.84 1.78-5.84h2.32l-2.54 6.8c-.85 2.28-1.95 2.9-4.13 3.14zM45.64 31v-7.94h-2.88V31h-2.3v-9.71h7.48V31zM55 31v-3.63a21.5 21.5 0 0 1 .32-3.82L52.52 31h-2.76v-9.71H52V25a20.06 20.06 0 0 1-.34 3.73l2.84-7.42h2.72V31zm8.08-7.94V31h-2.3v-7.94h-2.53v-1.77h7.42l-.22 1.76zm10.73 4.65C73.78 30 72.19 31 70 31h-3.4v-9.71h2.3v3.31h1c2.45 0 3.88 1.01 3.88 3.11zm-2.39 0c0-1-.53-1.54-1.65-1.54h-.84v3.14h.88a1.41 1.41 0 0 0 1.58-1.57zm14 .06c0 2.18-1.6 3.21-3.81 3.21h-3.38v-9.69h6.05L84 23h-3.47v1.72h1c2.47.03 3.89 1.04 3.89 3.07zm-2.4 0c0-1-.53-1.47-1.65-1.47h-.84v3h.88c1.02.03 1.59-.43 1.59-1.48zM91.8 31v-3.63a21.5 21.5 0 0 1 .32-3.82L89.33 31h-2.75v-9.71h2.25V25a20 20 0 0 1-.34 3.73l2.84-7.42h2.72V31zm11.42 0h-2.3v-8h-2l-.36 3.29c-.36 3.15-.92 4.45-3 4.92L95 29.63c1-.41 1.13-1.11 1.42-3.42l.58-4.92h6.25zm4.1-8.07v2.33h3v1.61h-3v2.48H111V31h-6v-9.71h6l-.24 1.64zm9.09.13V31h-2.3v-7.94h-2.51v-1.77h7.4l-.22 1.76z"/></g></g></symbol><symbol id="Cards" viewBox="0 0 64 44"><title>Cards</title><g id="Layer_2" data-name="Layer 2"><g id="Mobile"><path id="iconCards" class="cls-1" d="M45 44H19a4 4 0 0 1-4-4V4a4 4 0 0 1 4-4h26a4 4 0 0 1 4 4v36a4 4 0 0 1-4 4zM19 4v36h26V4zm45 31V9a4 4 0 0 0-4-4h-8v4h8v26h-8v4h8a4 4 0 0 0 4-4zm-52 0H4V9h8V5H4a4 4 0 0 0-4 4v26a4 4 0 0 0 4 4h8z"/></g></g></symbol><symbol id="Hamburger" viewBox="0 0 22 23"><title>Hamburger</title><g id="Layer_2" data-name="Layer 2"><path class="cls-1" d="M21 2H1a1 1 0 0 1 0-2h20a1 1 0 0 1 0 2zm1 9a1 1 0 0 0-1-1H1a1 1 0 0 0 0 2h20a1 1 0 0 0 1-1zm0 11a1 1 0 0 0-1-1H1a1 1 0 0 0 0 2h20a1 1 0 0 0 1-1z" id="Mobile"/></g></symbol><symbol id="LogoBelBiz" viewBox="0 0 101 43.01"><title>LogoBelBiz</title><g id="Layer_2" data-name="Layer 2"><g id="Mobile"><g id="Logo"><path class="cls-1" d="M9.65 38.44a5.74 5.74 0 0 1-.48 2.41 3.63 3.63 0 0 1-1.36 1.6 3.71 3.71 0 0 1-2 .56A3.54 3.54 0 0 1 3 41.76a5 5 0 0 1-1.11-3.36v-1a5.7 5.7 0 0 1 .48-2.4 3.58 3.58 0 0 1 3.39-2.18 3.72 3.72 0 0 1 2 .55 3.63 3.63 0 0 1 1.39 1.53 5.65 5.65 0 0 1 .5 2.34zm-.84-1.08A4.4 4.4 0 0 0 8 34.54a2.7 2.7 0 0 0-2.23-1 2.7 2.7 0 0 0-2.21 1 4.44 4.44 0 0 0-.82 2.85v1a4.39 4.39 0 0 0 .82 2.81 2.69 2.69 0 0 0 2.23 1 2.67 2.67 0 0 0 2.23-1 4.51 4.51 0 0 0 .8-2.85zm3.8 1.46v4.05h-.84v-10h3.39a3.57 3.57 0 0 1 2.45.79 3.12 3.12 0 0 1 0 4.34 3.68 3.68 0 0 1-2.51.76zm0-.71h2.55a2.69 2.69 0 0 0 1.84-.58 2.08 2.08 0 0 0 .64-1.62 2.18 2.18 0 0 0-.64-1.65 2.57 2.57 0 0 0-1.82-.63h-2.6zm13.79-4.48h-5.17v9.24h-.84v-10h6zm7.09 6.45H29l-1 2.8h-.88l3.77-10h.8l3.77 10h-.87zm-4.26-.71h4l-2-5.42zm15 3.51h-.85V38.1H37.7v4.77h-.84v-10h.84v4.47h5.69v-4.42h.85zm9.07-10h.84v10h-.84v-8.52l-5.67 8.52h-.85v-10h.85v8.51zm8.83 2.59a1.79 1.79 0 0 0-.67-1.47 3 3 0 0 0-1.93-.54 2.73 2.73 0 0 0-1.78.58 1.81 1.81 0 0 0-.7 1.46h-.85a2.44 2.44 0 0 1 .43-1.42 2.86 2.86 0 0 1 1.21-1 4 4 0 0 1 1.69-.35 4 4 0 0 1 2.53.72 2.44 2.44 0 0 1 .92 2 2.08 2.08 0 0 1-.49 1.35 2.86 2.86 0 0 1-1.31.88 2.31 2.31 0 0 1 1.94 2.4 2.5 2.5 0 0 1-1 2.06 4.1 4.1 0 0 1-2.62.77 4.29 4.29 0 0 1-1.82-.38 2.86 2.86 0 0 1-1.24-1 2.69 2.69 0 0 1-.42-1.49h.84a2 2 0 0 0 .75 1.57 2.85 2.85 0 0 0 1.89.62 3.21 3.21 0 0 0 2-.57 1.84 1.84 0 0 0 .73-1.53 1.8 1.8 0 0 0-.65-1.52 3.32 3.32 0 0 0-2-.52h-1.22v-.72h1.23a3.18 3.18 0 0 0 1.89-.49 1.67 1.67 0 0 0 .65-1.37zm8.26 4.56h-4.51l-1 2.8H64l3.77-10h.8l3.77 10h-.87zm-4.26-.71h4l-2-5.42zm14.38-5.74h-3.4v9.24h-.84v-9.19h-3.4v-.71h7.66zm9 4.81a5.75 5.75 0 0 1-.51 2.46 3.63 3.63 0 0 1-1.36 1.6 3.71 3.71 0 0 1-2 .56 3.53 3.53 0 0 1-2.82-1.25 5 5 0 0 1-1.07-3.37v-1a5.73 5.73 0 0 1 .46-2.39 3.58 3.58 0 0 1 3.39-2.18 3.72 3.72 0 0 1 2 .55A3.64 3.64 0 0 1 89 34.9a5.63 5.63 0 0 1 .5 2.34zm-.84-1.08a4.4 4.4 0 0 0-.81-2.82 2.93 2.93 0 0 0-4.44 0 4.43 4.43 0 0 0-.82 2.85v1a4.39 4.39 0 0 0 .82 2.81 2.93 2.93 0 0 0 4.46 0 4.51 4.51 0 0 0 .8-2.85zm3.8 1.46v4.05h-.87v-10H95a3.58 3.58 0 0 1 2.45.79 2.76 2.76 0 0 1 .9 2.18 2.73 2.73 0 0 1-.87 2.16 3.67 3.67 0 0 1-2.5.76zm0-.71H95a2.69 2.69 0 0 0 1.87-.58 2.08 2.08 0 0 0 .64-1.62 2.17 2.17 0 0 0-.64-1.65 2.56 2.56 0 0 0-1.87-.58h-2.6zM15 13.54h.56l.48.05a7.93 7.93 0 0 1 4.27 1.83 5.67 5.67 0 0 1 1.95 4.61 6 6 0 0 1-2.4 5.11A10.91 10.91 0 0 1 13.2 27h-.63c-.22 0-.44-.09-.67-.12s-.45 0-.67-.06-.43 0-.63 0-.41.12-.6.11-.38.11-.57.11H0V25h1.68a2.38 2.38 0 0 0 .92 0c.23-.11.4-.36.4-1V5.28c0-.66-.17-1-.4-1.11A2.23 2.23 0 0 0 1.68 4H0V2h8.21c.15 0 .29.22.43.19s.28.11.43.1.29 0 .43 0h.62c.21 0 .42-.16.65-.16s.41-.18.62-.18H12c3 0 5.2.51 6.55 1.34a6.28 6.28 0 0 1 2.64 2.87 6.47 6.47 0 0 1 .26 1 5.52 5.52 0 0 1 .09.95 4.25 4.25 0 0 1-1.73 3.64A7.9 7.9 0 0 1 16 13.37h-.98zM11.69 13c.16 0 .42-.27.77-.3a3.86 3.86 0 0 0 1.11-.45 3.94 3.94 0 0 0 1.6-1.25A4.48 4.48 0 0 0 16 8.4v-.2a5 5 0 0 0-1.16-2.88A4 4 0 0 0 11.43 4a6.71 6.71 0 0 0-1.87.24c-.49.16-.56.43-1.56.82v8zM8 24.38c1 .3 1 .55 1.5.77a5.78 5.78 0 0 0 2.05.33 3.73 3.73 0 0 0 2.81-1 5.66 5.66 0 0 0 1.32-2.14 7.63 7.63 0 0 0 .32-1.61c0-.51.07-.91.07-1.18v-1.08a6.4 6.4 0 0 0-.26-1.32A5.34 5.34 0 0 0 14.45 15a4.3 4.3 0 0 0-3.1-1H8zM28 18v1.33a7.2 7.2 0 0 0 1 3.84 4.53 4.53 0 0 0 1.82 1.68 3.32 3.32 0 0 0 1.05.34 6.24 6.24 0 0 0 .85.07 4.55 4.55 0 0 0 2.66-.79 10.26 10.26 0 0 0 2.2-2.16l.93.65a9.55 9.55 0 0 1-2.71 2.86 7.35 7.35 0 0 1-4.39 1.25A8.07 8.07 0 0 1 25.94 25a7.57 7.57 0 0 1-2.37-6A8.54 8.54 0 0 1 26 12.58a7.87 7.87 0 0 1 5.64-2.33 8.68 8.68 0 0 1 .93.05 9.31 9.31 0 0 1 1 .15 7.11 7.11 0 0 1 3.29 2.2c1 1.05 1.57 2.39 1.68 5.39zm6-2v-.21a8.73 8.73 0 0 0-.57-3 2 2 0 0 0-2-1.37 2.06 2.06 0 0 0-1.93 1.11 7.32 7.32 0 0 0-.83 2.45 3.41 3.41 0 0 0-.11.5 2.22 2.22 0 0 1-.07.5zM39 2a6.18 6.18 0 0 0 1.56-.31L42 1.37c.5-.16.92-.34 1.43-.55S45 .38 45 .1v24.55a1.38 1.38 0 0 0 .4 1c.18.09.5.35.7.35h.9v1h-8v-1h1.17c.21 0 .39-.26.57-.35s.26-.58.26-1V4.08c0-.53-.08-.82-.26-.91a1.3 1.3 0 0 0-.6-.12H39zM65 11.62a10.18 10.18 0 0 1 2.53-1.11 8.87 8.87 0 0 1 2.06-.26 6.09 6.09 0 0 1 .91.07c.3 0 .6.1.9.17A8.12 8.12 0 0 1 75.18 13 8.32 8.32 0 0 1 77 18.48v.33c0 .1-.22.21-.24.33a9.52 9.52 0 0 1-2.4 5.5 7.15 7.15 0 0 1-5.74 2.49 13.92 13.92 0 0 1-2.44-.24 5.93 5.93 0 0 1-2.77-1.27L61.6 27H61V3.6c0-.16-.1-.25-.21-.4S60.36 3 60 3h-1V1.92a3.39 3.39 0 0 1 .67-.12c.18 0 .4-.07.56-.12l.84-.21.76-.21a13.3 13.3 0 0 0 1.41-.51A10.54 10.54 0 0 1 65 0zm0 12.82c0 .46.66.88 1.09 1.14a3 3 0 0 0 1.47.46h.21a3.64 3.64 0 0 0 2.69-1.81c.81-1.1 1.22-3 1.22-5.76v-.74c0-.26 0-.51-.05-.76a8.57 8.57 0 0 0-.94-3.36A3 3 0 0 0 67.81 12h-.31a5 5 0 0 0-1.33.32c-.41.13-1.16.35-1.16.56z"/><path class="cls-1" d="M79 14.26c0-.41 0-.76-.11-.9s-.19-.36-.35-.36H77v-.87a7.62 7.62 0 0 0 1.8-.31c.56-.14 1.23-.3 1.8-.48s.76-.34 1.22-.53 1.18-.39 1.18-.6v14.4a1.39 1.39 0 0 0 .48 1 2.67 2.67 0 0 0 .79.35H85v1h-8V26h1.33c.21 0 .3-.26.49-.35s.18-.58.18-1zm3.7-8a2.44 2.44 0 0 1-3.46 0 2.41 2.41 0 0 1-.7-1.75 2.47 2.47 0 0 1 4.2-1.7 2.37 2.37 0 0 1 .67 1.7 2.41 2.41 0 0 1-.71 1.77zM88 15l.24-4H101v.89L92 26h1.54c.37 0 .82-.26 1.35-.34a10.16 10.16 0 0 0 1.63-.5 8.48 8.48 0 0 0 1.54-.71 5.48 5.48 0 0 0 1.3-1.21l.07-1.24h1.23l-.24 5H87v-1.5L96 12h-1.1a6.68 6.68 0 0 0-1 0 8.15 8.15 0 0 0-1 .15 9.77 9.77 0 0 0-2.21.78 3.28 3.28 0 0 0-1.46 1.2v.91z"/><circle class="cls-2" cx="53.72" cy="22.63" r="4.43"/></g></g></g></symbol><symbol id="LogoGew" viewBox="0 0 110.17 29.64"><title>LogoGew</title><g id="Layer_2" data-name="Layer 2"><g id="Mobile"><g class="cls-2"><g class="cls-2"><path class="cls-3" d="M15.75.23a14.11 14.11 0 0 1 3.1.67l-1.35 4a9.86 9.86 0 0 0-2.18-.45z"/><path class="cls-4" d="M15.75.23a14.11 14.11 0 0 1 3.1.67l-1.35 4a9.86 9.86 0 0 0-2.18-.45z"/><path class="cls-5" d="M18.85.9l.45.16L17.82 5l-.31-.11z"/><path class="cls-6" d="M19.3 1.06l.68.27-1.68 3.84-.48-.17z"/><path class="cls-7" d="M19.3 1.06l.68.27-1.68 3.84-.48-.17z"/><path class="cls-6" d="M20 1.33a14.14 14.14 0 0 1 3.15 1.9l-2.62 3.28a9.88 9.88 0 0 0-2.23-1.33z"/><path class="cls-7" d="M20 1.33a14.14 14.14 0 0 1 3.15 1.9l-2.62 3.28a9.88 9.88 0 0 0-2.23-1.33z"/><path class="cls-8" d="M25.71 5.89l.32.45-3.46 2.36-.23-.32z"/><path class="cls-9" d="M25.71 5.89l.32.45-3.46 2.36-.23-.32z"/><path class="cls-5" d="M26 6.35a14.14 14.14 0 0 1 1.44 2.71l-3.89 1.55a9.84 9.84 0 0 0-1-1.91z"/><path class="cls-10" d="M26 6.35a14.14 14.14 0 0 1 1.44 2.71l-3.89 1.55a9.84 9.84 0 0 0-1-1.91z"/><path class="cls-11" d="M27.48 9.06q.26.65.46 1.33l-4 1.16a9.79 9.79 0 0 0-.32-.93z"/><path class="cls-12" d="M27.48 9.06q.26.65.46 1.33l-4 1.16a9.79 9.79 0 0 0-.32-.93z"/><path class="cls-13" d="M28.48 14.32a14.19 14.19 0 0 1-.4 3.35l-4.1-1a9.89 9.89 0 0 0 .3-2.41v-.16l4.2-.09v.31"/><path class="cls-14" d="M28.48 14.32a14.19 14.19 0 0 1-.4 3.35l-4.1-1a9.89 9.89 0 0 0 .3-2.41v-.16l4.2-.09v.31z"/><path class="cls-15" d="M28.08 17.68a14.06 14.06 0 0 1-.77 2.32l-3.88-1.69a9.83 9.83 0 0 0 .55-1.6z"/><path class="cls-16" d="M28.08 17.68a14.06 14.06 0 0 1-.77 2.32l-3.88-1.69a9.83 9.83 0 0 0 .55-1.6z"/><path class="cls-17" d="M27.31 20a14.1 14.1 0 0 1-.74 1.47l-3.67-2.16a9.87 9.87 0 0 0 .53-1z"/><path class="cls-18" d="M27.31 20a14.1 14.1 0 0 1-.74 1.47l-3.67-2.16a9.87 9.87 0 0 0 .53-1z"/><path class="cls-19" d="M18.19 27.95l-.4.11-1.06-4.18.27-.08z"/><path class="cls-20" d="M18.19 27.95l-.4.11-1.06-4.18.27-.08z"/><path class="cls-21" d="M12.66 28.39a14 14 0 0 1-2.44-.51l1.26-4.17a9.84 9.84 0 0 0 1.69.36z"/><path class="cls-22" d="M12.66 28.39a14 14 0 0 1-2.44-.51l1.26-4.17a9.84 9.84 0 0 0 1.69.36z"/><path class="cls-23" d="M10.22 27.88q-.64-.19-1.25-.44l1.64-4q.42.17.86.31z"/><path class="cls-24" d="M10.22 27.88q-.64-.19-1.25-.44l1.64-4q.42.17.86.31z"/><path class="cls-25" d="M6.59 26.19L9 22.53a9.81 9.81 0 0 0 1.64.87L9 27.44a14.11 14.11 0 0 1-2.37-1.24"/><path class="cls-26" d="M6.59 26.19L9 22.53a9.81 9.81 0 0 0 1.64.87L9 27.44a14.11 14.11 0 0 1-2.41-1.25z"/><path class="cls-27" d="M6.59 26.19l-.52-.36 2.54-3.55.36.25z"/><path class="cls-28" d="M6.59 26.19l-.52-.36 2.54-3.55.36.25z"/><path class="cls-17" d="M6.07 25.83a14.24 14.24 0 0 1-1.48-1.22l3-3.18a9.9 9.9 0 0 0 1 .85z"/><path class="cls-18" d="M6.07 25.83a14.24 14.24 0 0 1-1.48-1.22l3-3.18a9.9 9.9 0 0 0 1 .85z"/><path class="cls-29" d="M4.59 24.61a14.21 14.21 0 0 1-3.15-4.4l4-1.82a9.91 9.91 0 0 0 2.18 3z"/><path class="cls-30" d="M4.59 24.61a14.21 14.21 0 0 1-3.15-4.4l4-1.82a9.91 9.91 0 0 0 2.18 3z"/><path class="cls-31" d="M1.43 20.21l-.18-.4 4-1.69.12.28z"/><path class="cls-32" d="M1.43 20.21l-.18-.4 4-1.69.12.28z"/><path class="cls-33" d="M1.25 19.8a14.05 14.05 0 0 1-.77-2.42l4.26-.94a9.86 9.86 0 0 0 .54 1.67z"/><path class="cls-34" d="M1.25 19.8a14.05 14.05 0 0 1-.77-2.42l4.26-.94a9.86 9.86 0 0 0 .54 1.67z"/><path class="cls-35" d="M.16 14.32a14.31 14.31 0 0 1 .1-1.7l4.31.52a10 10 0 0 0-.06 1.12v.44l-4.35.17v-.55"/><path class="cls-36" d="M.16 14.32a14.31 14.31 0 0 1 .1-1.7l4.31.52a10 10 0 0 0-.06 1.12v.44l-4.35.17v-.55z"/><path class="cls-29" d="M.26 12.62a14.08 14.08 0 0 1 .53-2.48l4.14 1.28a9.84 9.84 0 0 0-.35 1.72z"/><path class="cls-30" d="M.26 12.62a14.08 14.08 0 0 1 .53-2.48l4.14 1.28a9.84 9.84 0 0 0-.35 1.72z"/><path class="cls-37" d="M1.76 7.77q.29-.55.63-1.08L6 9q-.23.37-.43.75z"/><path class="cls-38" d="M1.76 7.77q.29-.55.63-1.08L6 9q-.23.37-.43.75z"/><path class="cls-39" d="M2.39 6.69q.25-.39.52-.76l3.46 2.55Q6.18 8.74 6 9z"/><path class="cls-40" d="M2.39 6.69q.25-.39.52-.76l3.46 2.55Q6.18 8.74 6 9z"/><path class="cls-39" d="M2.91 5.93A14.24 14.24 0 0 1 5.4 3.32l2.69 3.33a10 10 0 0 0-1.72 1.83z"/><path class="cls-40" d="M2.91 5.93A14.24 14.24 0 0 1 5.4 3.32l2.69 3.33a10 10 0 0 0-1.72 1.83z"/><path class="cls-41" d="M5.4 3.32q.53-.43 1.11-.82l2.35 3.57q-.4.27-.77.58z"/><path class="cls-42" d="M5.4 3.32q.53-.43 1.11-.82l2.35 3.57q-.4.27-.77.58z"/><path class="cls-43" d="M6.51 2.5L7 2.2l2.2 3.65-.33.21z"/><path class="cls-44" d="M6.51 2.5L7 2.2l2.2 3.65-.33.21z"/><path class="cls-45" d="M7 2.2l.49-.28 2.04 3.73-.34.2z"/><path class="cls-46" d="M7 2.2l.49-.28 2.04 3.73-.34.2z"/><path class="cls-5" d="M7.48 1.91q.57-.32 1.17-.58l1.7 3.9q-.42.19-.82.41z"/><path class="cls-10" d="M7.48 1.91q.57-.32 1.17-.58l1.7 3.9q-.42.19-.82.41z"/><path class="cls-47" d="M8.66 1.33l.67-.27 1.49 4-.47.2z"/><path class="cls-48" d="M8.66 1.33l.67-.27 1.49 4-.47.2z"/><path class="cls-49" d="M9.34 1.06a14.06 14.06 0 0 1 2.91-.75l.61 4.19a9.83 9.83 0 0 0-2 .54z"/><path class="cls-50" d="M9.34 1.06a14.06 14.06 0 0 1 2.91-.75l.61 4.19a9.83 9.83 0 0 0-2 .54z"/><path class="cls-43" d="M15.74.23l-.43 4.19H14L13.91.16h.41q.72 0 1.42.07"/><path class="cls-44" d="M15.74.23l-.43 4.19H14L13.91.16h.41q.68 0 1.42.07z"/><path class="cls-51" d="M13.91.16L14 4.38h-.46L13.25.2h.66"/><path class="cls-52" d="M13.91.16L14 4.38h-.46L13.25.2z"/><path class="cls-47" d="M12.25.31l.6-.07.43 4.2-.42.06z"/><path class="cls-48" d="M12.25.31l.6-.07.43 4.2-.42.06z"/><path class="cls-53" d="M13.24.2l.32 4.21h-.27L12.86.23h.38"/><path class="cls-54" d="M13.24.2l.32 4.21h-.27L12.86.23z"/><path class="cls-33" d="M1.76 7.77l3.83 2-.08.16L1.64 8l.11-.22"/><path class="cls-34" d="M1.76 7.77l3.83 2-.08.16L1.64 8z"/><path class="cls-55" d="M.78 10.14q.11-.36.24-.71l4.06 1.5q-.09.25-.16.5z"/><path class="cls-56" d="M.78 10.14q.11-.36.24-.71l4.06 1.5q-.09.25-.16.5z"/><path class="cls-35" d="M5.09 10.92L1 9.42A14.05 14.05 0 0 1 1.64 8L5.5 9.93a9.83 9.83 0 0 0-.42 1"/><path class="cls-36" d="M5.09 10.92L1 9.42A14.05 14.05 0 0 1 1.64 8L5.5 9.93a9.83 9.83 0 0 0-.41.99z"/><path class="cls-57" d="M12.66 28.39l.5-4.31a10 10 0 0 0 1.23.08h1l.46 4.3a14.35 14.35 0 0 1-3.15 0"/><path class="cls-58" d="M12.66 28.39l.5-4.31a10 10 0 0 0 1.23.08h1l.46 4.3a14.35 14.35 0 0 1-3.15 0z"/><path class="cls-19" d="M17.79 28.06a14.06 14.06 0 0 1-2 .35l-.46-4.3a9.92 9.92 0 0 0 1.37-.23z"/><path class="cls-20" d="M17.79 28.06a14.06 14.06 0 0 1-2 .35l-.46-4.3a9.92 9.92 0 0 0 1.37-.23z"/><path class="cls-6" d="M23.14 3.23a14.27 14.27 0 0 1 1.45 1.33l-3 2.88a10 10 0 0 0-1-.93z"/><path class="cls-7" d="M23.14 3.23a14.27 14.27 0 0 1 1.45 1.33l-3 2.88a10 10 0 0 0-1-.93z"/><path class="cls-59" d="M25.7 5.89l-3.36 2.49a10 10 0 0 0-.78-.93l3-2.88a14.23 14.23 0 0 1 1.14 1.32"/><path class="cls-60" d="M25.7 5.89l-3.36 2.49a10 10 0 0 0-.78-.93l3-2.88a14.23 14.23 0 0 1 1.14 1.32z"/><path class="cls-5" d="M.49 17.37q-.13-.6-.21-1.21l4.32-.57q.06.43.15.84z"/><path class="cls-10" d="M.49 17.37q-.13-.6-.21-1.21l4.32-.57q.06.43.15.84z"/><path class="cls-55" d="M.17 14.88l4.35-.17q0 .45.08.88l-4.32.57q-.08-.63-.11-1.28"/><path class="cls-56" d="M.17 14.88l4.35-.17q0 .45.08.88l-4.32.57q-.09-.64-.11-1.28z"/><path class="cls-15" d="M26.57 21.44a14.21 14.21 0 0 1-1.67 2.3l-3.18-2.83a9.88 9.88 0 0 0 1.19-1.6z"/><path class="cls-16" d="M26.57 21.44a14.21 14.21 0 0 1-1.67 2.3l-3.18-2.83a9.88 9.88 0 0 0 1.19-1.6z"/><path class="cls-13" d="M18.19 27.95L17 23.8a9.89 9.89 0 0 0 4.7-2.89l3.18 2.83a14.16 14.16 0 0 1-6.7 4.2"/><path class="cls-14" d="M18.19 27.95L17 23.8a9.89 9.89 0 0 0 4.7-2.89l3.18 2.83a14.16 14.16 0 0 1-6.69 4.21z"/><path class="cls-61" d="M24.18 12.83l4.15-.63a14.32 14.32 0 0 1 .15 1.8l-4.2.1a9.85 9.85 0 0 0-.1-1.27"/><path class="cls-62" d="M24.18 12.83l4.15-.63a14.32 14.32 0 0 1 .15 1.8l-4.2.1a9.85 9.85 0 0 0-.1-1.27z"/><path class="cls-63" d="M27.93 10.39a14.12 14.12 0 0 1 .39 1.8l-4.15.63a9.93 9.93 0 0 0-.27-1.27z"/><path class="cls-64" d="M27.93 10.39a14.12 14.12 0 0 1 .39 1.8l-4.15.63a9.93 9.93 0 0 0-.27-1.27z"/></g></g><text class="cls-65" transform="translate(35.23 6.85)">&#x412;&#x421;&#x415;&#x41C;&#x418;&#x420;&#x41D;&#x410;&#x42F; &#x41D;&#x415;&#x414;&#x415;&#x41B;&#x42F;<tspan x="0" y="7.45">&#x41F;&#x420;&#x415;&#x414;&#x41F;&#x420;&#x418;&#x41D;&#x418;&#x41C;</tspan><tspan class="cls-66" x="41.14" y="7.45">&#x410;</tspan><tspan x="44.49" y="7.45">&#x422;&#x415;&#x41B;&#x42C;&#x421;&#x422;&#x412;&#x410; </tspan><tspan class="cls-67"><tspan x="0" y="19.64">&#x412; &#x411;&#x415;&#x41B;&#x410;&#x420;&#x423;&#x421;&#x418;</tspan></tspan></text></g></g></symbol><symbol id="Member" viewBox="0 0 40.74 39.02"><title>Member</title><g id="Layer_2" data-name="Layer 2"><g id="Mobile"><path class="cls-1" d="M9.61 39a3 3 0 0 1-2.92-3.68l2.44-10.45-8.1-7a3 3 0 0 1 1.72-5.25l10.67-.91 4.19-9.84a3 3 0 0 1 5.52 0l4.19 9.84 10.68.86a3 3 0 0 1 1.72 5.25l-8.1 7.05L34 35.33a3 3 0 0 1-4.48 3.25L20.37 33l-9.21 5.58a3 3 0 0 1-1.55.42zm10.76-10.17a3 3 0 0 1 1.56.44l7.69 4.66-2-8.73a3 3 0 0 1 1-2.94l6.77-5.89-8.92-.76a3 3 0 0 1-2.51-1.81l-3.5-8.23-3.5 8.23a3 3 0 0 1-2.51 1.81l-8.92.76 6.77 5.89a3 3 0 0 1 1 2.94l-2 8.73 7.69-4.66a3 3 0 0 1 1.38-.44zm.52 3.86z" id="iconMember"/></g></g></symbol><symbol id="Phone" viewBox="0 0 23.82 23.82"><title>Phone</title><g id="Layer_2" data-name="Layer 2"><path class="cls-1" d="M20.74 2a1.06 1.06 0 0 1 1.08 1.08 18 18 0 0 1-5.5 13.24 18 18 0 0 1-13.24 5.5A1.06 1.06 0 0 1 2 20.74v-3.87c0-1.24 1.73-2.51 3.56-2.51a3.57 3.57 0 0 1 2.58 1.06l.19.16a1.6 1.6 0 0 0 1.12.42 1.46 1.46 0 0 0 .76-.21 16.06 16.06 0 0 0 5.68-5.38 1.6 1.6 0 0 0-.21-2l-.26-.34C13.78 6.51 14.61 2 16.87 2h3.87m0-2h-3.87a4.16 4.16 0 0 0-3.77 2.84c-.83 2-.8 4.87.8 6.6l.15.2a14 14 0 0 1-4.56 4.3 5.61 5.61 0 0 0-3.92-1.58c-3 0-5.57 2.11-5.57 4.51v3.87a3.06 3.06 0 0 0 3.08 3.08 20.06 20.06 0 0 0 14.66-6.08 20.06 20.06 0 0 0 6.08-14.66A3.06 3.06 0 0 0 20.74 0z" id="Mobile"/></g></symbol><symbol id="Play" viewBox="0 0 29.94 29.82"><title>Play</title><g id="Layer_2" data-name="Layer 2"><g id="Mobile"><path class="cls-1" d="M29.08 16.33L2.37 29.65A1.64 1.64 0 0 1 0 28.23V1.59A1.64 1.64 0 0 1 2.37.17L29 13.49a1.59 1.59 0 0 1 .08 2.84z" id="iconPlay"/></g></g></symbol><symbol id="Program" viewBox="0 0 63 38"><title>Program</title><g id="Layer_2" data-name="Layer 2"><path class="cls-1" d="M7 0H3a3 3 0 0 0-3 3v4a3 3 0 0 0 3 3h4a3 3 0 0 0 3-3V3a3 3 0 0 0-3-3zm0 7H3V3h4zm56-4a3 3 0 0 0-3-3H16a3 3 0 0 0-3 3v4a3 3 0 0 0 3 3h44a3 3 0 0 0 3-3zm-3 4H16V3h44zM10 17a3 3 0 0 0-3-3H3a3 3 0 0 0-3 3v4a3 3 0 0 0 3 3h4a3 3 0 0 0 3-3zm-3 4H3v-4h4zm56-4a3 3 0 0 0-3-3H16a3 3 0 0 0-3 3v4a3 3 0 0 0 3 3h44a3 3 0 0 0 3-3zm-3 4H16v-4h44zM10 31a3 3 0 0 0-3-3H3a3 3 0 0 0-3 3v4a3 3 0 0 0 3 3h4a3 3 0 0 0 3-3zm-3 4H3v-4h4zm56-4a3 3 0 0 0-3-3H16a3 3 0 0 0-3 3v4a3 3 0 0 0 3 3h44a3 3 0 0 0 3-3zm-3 4H16v-4h44z" id="Mobile"/></g></symbol><symbol id="Quotes" viewBox="0 0 19.37 15.29"><title>Quotes</title><g id="Layer_2" data-name="Layer 2"><g id="Mobile"><path id="quote" class="cls-1" d="M5.33 0l4 2.31a15.62 15.62 0 0 0-2.62 8.09v4.89H0V10.9A13.34 13.34 0 0 1 1.54 5a15.31 15.31 0 0 1 3.79-5zm10 0l4 2.31a15.62 15.62 0 0 0-2.61 8.09v4.89H10V10.9A13.34 13.34 0 0 1 11.59 5a15.31 15.31 0 0 1 3.79-5z"/></g></g></symbol><symbol id="Ticket" viewBox="0 0 25.08 25.08"><title>Ticket</title><g id="Layer_2" data-name="Layer 2"><path class="cls-1" d="M14.65 2l1.9 1.9a3.28 3.28 0 0 0 4.64 4.64l1.9 1.9-12.66 12.64-1.9-1.9.22-.2a3.28 3.28 0 1 0-4.64-4.64l-.2.22L2 14.65 14.65 2m0-2a2 2 0 0 0-1.41.59L.59 13.24a2 2 0 0 0 0 2.83L2.49 18a2 2 0 0 0 1.41.59H4a2 2 0 0 0 1.45-.72l.08-.09a1.28 1.28 0 0 1 1.81 1.81l-.09.08a2 2 0 0 0-.13 3L9 24.5a2 2 0 0 0 2.83 0L24.5 11.85a2 2 0 0 0 0-2.85l-1.9-1.9a2 2 0 0 0-2.83 0 1.29 1.29 0 0 1-1.81 0 1.3 1.3 0 0 1 0-1.81 2 2 0 0 0 0-2.83L16.06.59A2 2 0 0 0 14.65 0zm-2.48 14.33l2.42-2.42a1 1 0 0 0-1.41-1.41l-2.42 2.42a1 1 0 1 0 1.41 1.41z" id="Mobile"/></g></symbol></svg>