<svg xmlns="http://www.w3.org/2000/svg" viewBox="0 0 142 52"><title>BtnBuyActive</title><style>.btn-buy:hover{fill: #fff}</style><path d="M139.54,17.12a3,3,0,0,0,2.46-3V3a3,3,0,0,0-3-3H3A3,3,0,0,0,0,3V14.14a3,3,0,0,0,2.46,3,9,9,0,0,1,0,17.76A3,3,0,0,0,0,37.9V49a3,3,0,0,0,3,3H139a3,3,0,0,0,3-3V37.86a3,3,0,0,0-2.46-3,9,9,0,0,1,0-17.76Z" class="btn-buy" /><path d="M31.77,31H29.26l-2.09-4.22h-1V31h-2.3V21.29h2.3V25.1h1.07l2-3.81H31.5l-2.39,4.4Zm1.3.24-.31-1.54A2.47,2.47,0,0,0,35,28.44h-.73l-3-7.14h2.37l2,5.84,1.78-5.84h2.32L37.2,28.1C36.35,30.38,35.25,31,33.07,31.24ZM45.64,31V23.06H42.76V31h-2.3V21.29h7.48V31ZM55,31V27.37a21.5,21.5,0,0,1,.32-3.82L52.52,31H49.76V21.29H52V25a20.06,20.06,0,0,1-.34,3.73l2.84-7.42h2.72V31Zm8.08-7.94V31h-2.3V23.06H58.25V21.29h7.42l-.22,1.76Zm10.73,4.65C73.78,30,72.19,31,70,31H66.6V21.29h2.3V24.6h1c2.45,0,3.88,1,3.88,3.11Zm-2.39,0c0-1-.53-1.54-1.65-1.54h-.84v3.14h.88a1.41,1.41,0,0,0,1.58-1.57Zm14,.06c0,2.18-1.6,3.21-3.81,3.21H78.23V21.29h6.05L84,23H80.53v1.72h1c2.47,0,3.89,1,3.89,3.07Zm-2.4,0c0-1-.53-1.47-1.65-1.47h-.84v3h.88c1,0,1.59-.43,1.59-1.48ZM91.8,31V27.37a21.5,21.5,0,0,1,.32-3.82L89.33,31H86.58V21.29h2.25V25a20,20,0,0,1-.34,3.73l2.84-7.42h2.72V31Zm11.42,0h-2.3V23h-2l-.36,3.29c-.36,3.15-.92,4.45-3,4.92L95,29.63c1-.41,1.13-1.11,1.42-3.42L97,21.29h6.25Zm4.1-8.07v2.33h3v1.61h-3v2.48H111V31h-6V21.29h6l-.24,1.64Zm9.09.13V31h-2.3V23.06H111.6V21.29H119l-.22,1.76Z" class="btn-buy__text"/></svg>
