<svg xmlns="http://www.w3.org/2000/svg" viewBox="0 0 142 52"><defs><style>.cls-1{fill:#3ff;}</style></defs><title>BtnBuy</title><g id="Layer_2" data-name="Layer 2"><g id="Mobile"><path class="cls-1" d="M139,52H3a3,3,0,0,1-3-3V37.86a3,3,0,0,1,2.46-3,9,9,0,0,0,0-17.76,3,3,0,0,1-2.46-3V3A3,3,0,0,1,3,0H139a3,3,0,0,1,3,3V14.14a3,3,0,0,1-2.46,3,9,9,0,0,0,0,17.76,3,3,0,0,1,2.46,3V49A3,3,0,0,1,139,52ZM3,2A1,1,0,0,0,2,3V14.14a1,1,0,0,0,.78,1,11,11,0,0,1,0,21.71,1,1,0,0,0-.78,1V49a1,1,0,0,0,1,1H139a1,1,0,0,0,1-1V37.86a1,1,0,0,0-.78-1,11,11,0,0,1,0-21.71,1,1,0,0,0,.78-1V3a1,1,0,0,0-1-1ZM31.77,31H29.26l-2.09-4.22h-1V31h-2.3V21.29h2.3V25.1h1.07l2-3.81H31.5l-2.39,4.4Zm1.3.24-.31-1.54c1.22-.15,1.79-.45,2.24-1.26h-.73l-3-7.14h2.37l2,5.84,1.78-5.84h2.32L37.2,28.1C36.35,30.38,35.25,31,33.07,31.24ZM45.64,31V23.06H42.76V31h-2.3V21.29h7.48V31ZM55,31V27.37a21.5,21.5,0,0,1,.32-3.82L52.52,31H49.76V21.29H52V25a20.06,20.06,0,0,1-.34,3.73l2.84-7.42h2.72V31Zm8.08-7.94V31h-2.3V23.06H58.25V21.29h7.42l-.22,1.76Zm10.73,4.65C73.78,30,72.19,31,70,31H66.6V21.29h2.3V24.6h1C72.35,24.6,73.78,25.61,73.78,27.71Zm-2.39,0c0-1-.53-1.54-1.65-1.54h-.84v3.14h.88A1.41,1.41,0,0,0,71.39,27.74Zm14,.06c0,2.18-1.6,3.21-3.81,3.21H78.23V21.29h6.05L84,23H80.53v1.72h1C84,24.75,85.42,25.76,85.42,27.79Zm-2.4,0c0-1-.53-1.47-1.65-1.47h-.84v3h.88C82.43,29.33,83,28.87,83,27.82ZM91.8,31V27.37a21.5,21.5,0,0,1,.32-3.82L89.33,31H86.58V21.29h2.25V25a20,20,0,0,1-.34,3.73l2.84-7.42h2.72V31Zm11.42,0h-2.3V23h-2l-.36,3.29c-.36,3.15-.92,4.45-3,4.92L95,29.63c1-.41,1.13-1.11,1.42-3.42L97,21.29h6.25Zm4.1-8.07v2.33h3v1.61h-3v2.48H111V31h-6V21.29h6l-.24,1.64Zm9.09.13V31h-2.3V23.06h-2.51V21.29H119l-.22,1.76Z"/></g></g></svg>