<svg xmlns="http://www.w3.org/2000/svg" viewBox="0 0 110.17 29.64"><defs><clipPath id="a"><path fill="none" d="M.11.11h28v28h-28z"/></clipPath></defs><title>LogoGew</title><path fill="none" d="M.11.11h28v28h-28z"/><g clip-path="url(#a)"><path d="M15.75.23a14.11 14.11 0 0 1 3.1.67l-1.35 4a9.86 9.86 0 0 0-2.18-.45z" fill="#facbcb"/><path d="M15.75.23a14.11 14.11 0 0 1 3.1.67l-1.35 4a9.86 9.86 0 0 0-2.18-.45z" fill="none" stroke="#facbcb" stroke-miterlimit="3.86" stroke-width=".31"/><path d="M18.85.9l.45.16L17.82 5l-.31-.11z" fill="#fff"/><path d="M19.3 1.06l.68.27-1.68 3.84-.48-.17z" fill="#93d6e6"/><path d="M19.3 1.06l.68.27-1.68 3.84-.48-.17z" fill="none" stroke="#93d6e6" stroke-miterlimit="3.86" stroke-width=".31"/><path d="M20 1.33a14.14 14.14 0 0 1 3.15 1.9l-2.62 3.28a9.88 9.88 0 0 0-2.23-1.33z" fill="#93d6e6"/><path d="M20 1.33a14.14 14.14 0 0 1 3.15 1.9l-2.62 3.28a9.88 9.88 0 0 0-2.23-1.33z" fill="none" stroke="#93d6e6" stroke-miterlimit="3.86" stroke-width=".31"/><path d="M25.71 5.89l.32.45-3.46 2.36-.23-.32z" fill="#7f1e5c"/><path d="M25.71 5.89l.32.45-3.46 2.36-.23-.32z" fill="none" stroke="#7f1e5c" stroke-miterlimit="3.86" stroke-width=".31"/><path d="M26 6.35a14.14 14.14 0 0 1 1.44 2.71l-3.89 1.55a9.84 9.84 0 0 0-1-1.91z" fill="#fff"/><path d="M26 6.35a14.14 14.14 0 0 1 1.44 2.71l-3.89 1.55a9.84 9.84 0 0 0-1-1.91z" fill="none" stroke="#fff" stroke-miterlimit="3.86" stroke-width=".31"/><path d="M27.48 9.06q.26.65.46 1.33l-4 1.16a9.79 9.79 0 0 0-.32-.93z" fill="#b0bfc8"/><path d="M27.48 9.06q.26.65.46 1.33l-4 1.16a9.79 9.79 0 0 0-.32-.93z" fill="none" stroke="#b0bfc8" stroke-miterlimit="3.86" stroke-width=".31"/><path d="M28.48 14.32a14.19 14.19 0 0 1-.4 3.35l-4.1-1a9.89 9.89 0 0 0 .3-2.41v-.16l4.2-.09v.31" fill="#e1e2e3"/><path d="M28.48 14.32a14.19 14.19 0 0 1-.4 3.35l-4.1-1a9.89 9.89 0 0 0 .3-2.41v-.16l4.2-.09z" fill="none" stroke="#e1e2e3" stroke-miterlimit="3.86" stroke-width=".31"/><path d="M28.08 17.68a14.06 14.06 0 0 1-.77 2.32l-3.88-1.69a9.83 9.83 0 0 0 .55-1.6z" fill="#f3ea27"/><path d="M28.08 17.68a14.06 14.06 0 0 1-.77 2.32l-3.88-1.69a9.83 9.83 0 0 0 .55-1.6z" fill="none" stroke="#f3ea27" stroke-miterlimit="3.86" stroke-width=".31"/><path d="M27.31 20a14.1 14.1 0 0 1-.74 1.47l-3.67-2.16a9.87 9.87 0 0 0 .53-1z" fill="#d5de2a"/><path d="M27.31 20a14.1 14.1 0 0 1-.74 1.47l-3.67-2.16a9.87 9.87 0 0 0 .53-1z" fill="none" stroke="#d5de2a" stroke-miterlimit="3.86" stroke-width=".31"/><path d="M18.19 28l-.4.11-1.06-4.18.27-.13z" fill="#78431c"/><path d="M18.19 28l-.4.11-1.06-4.18.27-.13z" fill="none" stroke="#78431c" stroke-miterlimit="3.86" stroke-width=".31"/><path d="M12.66 28.39a14 14 0 0 1-2.44-.51l1.26-4.17a9.84 9.84 0 0 0 1.69.36z" fill="#8da2ad"/><path d="M12.66 28.39a14 14 0 0 1-2.44-.51l1.26-4.17a9.84 9.84 0 0 0 1.69.36z" fill="none" stroke="#8da2ad" stroke-miterlimit="3.86" stroke-width=".31"/><path d="M10.22 27.88A13.2 13.2 0 0 1 9 27.44l1.64-4q.42.17.86.31z" fill="#c52128"/><path d="M10.22 27.88A13.2 13.2 0 0 1 9 27.44l1.64-4q.42.17.86.31z" fill="none" stroke="#c52128" stroke-miterlimit="3.86" stroke-width=".31"/><path d="M6.59 26.19L9 22.53a9.81 9.81 0 0 0 1.64.87L9 27.44a14.11 14.11 0 0 1-2.37-1.24" fill="#eb6a56"/><path d="M6.59 26.19L9 22.53a9.81 9.81 0 0 0 1.64.87L9 27.44a14.11 14.11 0 0 1-2.41-1.25z" fill="none" stroke="#eb6a56" stroke-miterlimit="3.86" stroke-width=".31"/><path d="M6.59 26.19l-.52-.36 2.54-3.55.36.25z" fill="#c9652b"/><path d="M6.59 26.19l-.52-.36 2.54-3.55.36.25z" fill="none" stroke="#c9652b" stroke-miterlimit="3.86" stroke-width=".31"/><path d="M6.07 25.83a14.24 14.24 0 0 1-1.48-1.22l3-3.18a9.9 9.9 0 0 0 1 .85z" fill="#d5de2a"/><path d="M6.07 25.83a14.24 14.24 0 0 1-1.48-1.22l3-3.18a9.9 9.9 0 0 0 1 .85z" fill="none" stroke="#d5de2a" stroke-miterlimit="3.86" stroke-width=".31"/><path d="M4.59 24.61a14.21 14.21 0 0 1-3.15-4.4l4-1.82a9.91 9.91 0 0 0 2.18 3z" fill="#ec2f27"/><path d="M4.59 24.61a14.21 14.21 0 0 1-3.15-4.4l4-1.82a9.91 9.91 0 0 0 2.18 3z" fill="none" stroke="#ec2f27" stroke-miterlimit="3.86" stroke-width=".31"/><path d="M1.43 20.21l-.18-.4 4-1.69.12.28z" fill="#c52d2c"/><path d="M1.43 20.21l-.18-.4 4-1.69.12.28z" fill="none" stroke="#c52d2c" stroke-miterlimit="3.86" stroke-width=".31"/><path d="M1.25 19.8a14.05 14.05 0 0 1-.77-2.42l4.26-.94a9.86 9.86 0 0 0 .54 1.67z" fill="#f8e2b0"/><path d="M1.25 19.8a14.05 14.05 0 0 1-.77-2.42l4.26-.94a9.86 9.86 0 0 0 .54 1.67z" fill="none" stroke="#f8e2b0" stroke-miterlimit="3.86" stroke-width=".31"/><path d="M.16 14.32a14.31 14.31 0 0 1 .1-1.7l4.31.52a10 10 0 0 0-.06 1.12v.44l-4.35.17v-.55" fill="#d58528"/><path d="M.16 14.32a14.31 14.31 0 0 1 .1-1.7l4.31.52a10 10 0 0 0-.06 1.12v.44l-4.35.17z" fill="none" stroke="#d58528" stroke-miterlimit="3.86" stroke-width=".31"/><path d="M.26 12.62a14.08 14.08 0 0 1 .53-2.48l4.14 1.28a9.84 9.84 0 0 0-.35 1.72z" fill="#ec2f27"/><path d="M.26 12.62a14.08 14.08 0 0 1 .53-2.48l4.14 1.28a9.84 9.84 0 0 0-.35 1.72z" fill="none" stroke="#ec2f27" stroke-miterlimit="3.86" stroke-width=".31"/><path d="M1.76 7.77q.29-.55.63-1.08L6 9q-.23.37-.43.75z" fill="#f1b698"/><path d="M1.76 7.77q.29-.55.63-1.08L6 9q-.23.37-.43.75z" fill="none" stroke="#f1b698" stroke-miterlimit="3.86" stroke-width=".31"/><path d="M2.39 6.69q.25-.39.52-.76l3.46 2.55L6 9z" fill="#f5a1b6"/><path d="M2.39 6.69q.25-.39.52-.76l3.46 2.55L6 9z" fill="none" stroke="#f5a1b6" stroke-miterlimit="3.86" stroke-width=".31"/><path d="M2.91 5.93A14.24 14.24 0 0 1 5.4 3.32l2.69 3.33a10 10 0 0 0-1.72 1.83z" fill="#f5a1b6"/><path d="M2.91 5.93A14.24 14.24 0 0 1 5.4 3.32l2.69 3.33a10 10 0 0 0-1.72 1.83z" fill="none" stroke="#f5a1b6" stroke-miterlimit="3.86" stroke-width=".31"/><path d="M5.4 3.32q.53-.43 1.11-.82l2.35 3.57a9.3 9.3 0 0 0-.77.58z" fill="#f9c9d3"/><path d="M5.4 3.32q.53-.43 1.11-.82l2.35 3.57a9.3 9.3 0 0 0-.77.58z" fill="none" stroke="#f9c9d3" stroke-miterlimit="3.86" stroke-width=".31"/><path d="M6.51 2.5L7 2.2l2.2 3.65-.33.21z" fill="#8d80b3"/><path d="M6.51 2.5L7 2.2l2.2 3.65-.33.21z" fill="none" stroke="#8d80b3" stroke-miterlimit="3.86" stroke-width=".31"/><path d="M7 2.2l.49-.28 2 3.73-.34.2z" fill="#817087"/><path d="M7 2.2l.49-.28 2 3.73-.34.2z" fill="none" stroke="#817087" stroke-miterlimit="3.86" stroke-width=".31"/><path d="M7.48 1.91a12.72 12.72 0 0 1 1.17-.58l1.7 3.9q-.42.19-.82.41z" fill="#fff"/><path d="M7.48 1.91a12.72 12.72 0 0 1 1.17-.58l1.7 3.9q-.42.19-.82.41z" fill="none" stroke="#fff" stroke-miterlimit="3.86" stroke-width=".31"/><path d="M8.66 1.33l.67-.27 1.49 4-.47.2z" fill="#5571b6"/><path d="M8.66 1.33l.67-.27 1.49 4-.47.2z" fill="none" stroke="#5571b6" stroke-miterlimit="3.86" stroke-width=".31"/><path d="M9.34 1.06a14.06 14.06 0 0 1 2.91-.75l.61 4.19a9.83 9.83 0 0 0-2 .54z" fill="#859ace"/><path d="M9.34 1.06a14.06 14.06 0 0 1 2.91-.75l.61 4.19a9.83 9.83 0 0 0-2 .54z" fill="none" stroke="#859ace" stroke-miterlimit="3.86" stroke-width=".31"/><path d="M15.74.23l-.43 4.19H14L13.91.16h.41q.72 0 1.42.07" fill="#8d80b3"/><path d="M15.74.23l-.43 4.19H14L13.91.16h.41q.68 0 1.42.07z" fill="none" stroke="#8d80b3" stroke-miterlimit="3.86" stroke-width=".31"/><path d="M13.91.16L14 4.38h-.46L13.25.2h.66" fill="#5e64a6"/><path d="M13.91.16L14 4.38h-.46L13.25.2z" fill="none" stroke="#5e64a6" stroke-miterlimit="3.86" stroke-width=".31"/><path d="M12.25.31l.6-.07.43 4.2-.42.06z" fill="#5571b6"/><path d="M12.25.31l.6-.07.43 4.2-.42.06z" fill="none" stroke="#5571b6" stroke-miterlimit="3.86" stroke-width=".31"/><path d="M13.24.2l.32 4.21h-.27L12.86.23h.38" fill="#3870ac"/><path d="M13.24.2l.32 4.21h-.27L12.86.23z" fill="none" stroke="#3870ac" stroke-miterlimit="3.86" stroke-width=".31"/><path d="M1.76 7.77l3.83 2-.08.16L1.64 8l.11-.22" fill="#f8e2b0"/><path d="M1.76 7.77l3.83 2-.08.16L1.64 8z" fill="none" stroke="#f8e2b0" stroke-miterlimit="3.86" stroke-width=".31"/><path d="M.78 10.14q.11-.36.24-.71l4.06 1.5q-.09.25-.16.5z" fill="#f89e20"/><path d="M.78 10.14q.11-.36.24-.71l4.06 1.5q-.09.25-.16.5z" fill="none" stroke="#f89e20" stroke-miterlimit="3.86" stroke-width=".31"/><path d="M5.09 10.92L1 9.42A14.05 14.05 0 0 1 1.64 8L5.5 9.93a9.83 9.83 0 0 0-.42 1" fill="#d58528"/><path d="M5.09 10.92L1 9.42A14.05 14.05 0 0 1 1.64 8L5.5 9.93a9.83 9.83 0 0 0-.41.99z" fill="none" stroke="#d58528" stroke-miterlimit="3.86" stroke-width=".31"/><path d="M12.66 28.39l.5-4.31a10 10 0 0 0 1.23.08h1l.46 4.3a14.35 14.35 0 0 1-3.15 0" fill="#492d16"/><path d="M12.66 28.39l.5-4.31a10 10 0 0 0 1.23.08h1l.46 4.3a14.35 14.35 0 0 1-3.15 0z" fill="none" stroke="#492d16" stroke-miterlimit="3.86" stroke-width=".31"/><path d="M17.79 28.06a14.06 14.06 0 0 1-2 .35l-.46-4.3a9.92 9.92 0 0 0 1.37-.23z" fill="#78431c"/><path d="M17.79 28.06a14.06 14.06 0 0 1-2 .35l-.46-4.3a9.92 9.92 0 0 0 1.37-.23z" fill="none" stroke="#78431c" stroke-miterlimit="3.86" stroke-width=".31"/><path d="M23.14 3.23a14.27 14.27 0 0 1 1.45 1.33l-3 2.88a10 10 0 0 0-1-.93z" fill="#93d6e6"/><path d="M23.14 3.23a14.27 14.27 0 0 1 1.45 1.33l-3 2.88a10 10 0 0 0-1-.93z" fill="none" stroke="#93d6e6" stroke-miterlimit="3.86" stroke-width=".31"/><path d="M25.7 5.89l-3.36 2.49a10 10 0 0 0-.78-.93l3-2.88a14.23 14.23 0 0 1 1.14 1.32" fill="#a72171"/><path d="M25.7 5.89l-3.36 2.49a10 10 0 0 0-.78-.93l3-2.88a14.23 14.23 0 0 1 1.14 1.32z" fill="none" stroke="#a72171" stroke-miterlimit="3.86" stroke-width=".31"/><path d="M.49 17.37q-.13-.6-.21-1.21l4.32-.57q.06.43.15.84z" fill="#fff"/><path d="M.49 17.37q-.13-.6-.21-1.21l4.32-.57q.06.43.15.84z" fill="none" stroke="#fff" stroke-miterlimit="3.86" stroke-width=".31"/><path d="M.17 14.88l4.35-.17a4.8 4.8 0 0 0 .08.88l-4.32.57q-.08-.63-.11-1.28" fill="#f89e20"/><path d="M.17 14.88l4.35-.17a4.8 4.8 0 0 0 .08.88l-4.32.57a11.84 11.84 0 0 1-.11-1.28z" fill="none" stroke="#f89e20" stroke-miterlimit="3.86" stroke-width=".31"/><path d="M26.57 21.44a14.21 14.21 0 0 1-1.67 2.3l-3.18-2.83a9.88 9.88 0 0 0 1.19-1.6z" fill="#f3ea27"/><path d="M26.57 21.44a14.21 14.21 0 0 1-1.67 2.3l-3.18-2.83a9.88 9.88 0 0 0 1.19-1.6z" fill="none" stroke="#f3ea27" stroke-miterlimit="3.86" stroke-width=".31"/><path d="M18.19 28L17 23.8a9.89 9.89 0 0 0 4.7-2.89l3.18 2.83a14.16 14.16 0 0 1-6.7 4.2" fill="#e1e2e3"/><path d="M18.19 28L17 23.8a9.89 9.89 0 0 0 4.7-2.89l3.18 2.83A14.16 14.16 0 0 1 18.19 28z" fill="none" stroke="#e1e2e3" stroke-miterlimit="3.86" stroke-width=".31"/><path d="M24.18 12.83l4.15-.63a14.32 14.32 0 0 1 .15 1.8l-4.2.1a9.85 9.85 0 0 0-.1-1.27" fill="#5a96a5"/><path d="M24.18 12.83l4.15-.63a14.32 14.32 0 0 1 .15 1.8l-4.2.1a9.85 9.85 0 0 0-.1-1.27z" fill="none" stroke="#5a96a5" stroke-miterlimit="3.86" stroke-width=".31"/><path d="M27.93 10.39a14.12 14.12 0 0 1 .39 1.8l-4.15.63a9.93 9.93 0 0 0-.27-1.27z" fill="#009bc8"/><path d="M27.93 10.39a14.12 14.12 0 0 1 .39 1.8l-4.15.63a9.93 9.93 0 0 0-.27-1.27z" fill="none" stroke="#009bc8" stroke-miterlimit="3.86" stroke-width=".31"/></g><g style="isolation:isolate" fill="#fff" font-family="PFBagueSansPro-Thin, PF Bague Sans Pro"><text transform="translate(35.22 6.85)" style="isolation:isolate" font-size="6.21">ВСЕМИРНАЯ НЕДЕЛЯ</text><text transform="translate(35.22 14.3)" style="isolation:isolate" font-size="6.21">ПРЕДПРИНИМ</text><text transform="translate(76.36 14.3)" style="isolation:isolate" font-size="6.21" letter-spacing="-.059em">А</text><text transform="translate(79.71 14.3)" style="isolation:isolate" font-size="6.21">ТЕЛЬСТВА</text><text transform="translate(35.22 26.49)" style="isolation:isolate" font-size="13.06">В БЕЛАРУСИ</text></g></svg>