<svg xmlns="http://www.w3.org/2000/svg" xmlns:xlink="http://www.w3.org/1999/xlink" viewBox="0 0 110.17 29.64"><defs><style>.cls-1,.cls-10,.cls-12,.cls-14,.cls-16,.cls-18,.cls-20,.cls-22,.cls-24,.cls-26,.cls-28,.cls-30,.cls-32,.cls-34,.cls-36,.cls-38,.cls-4,.cls-40,.cls-42,.cls-44,.cls-46,.cls-48,.cls-50,.cls-52,.cls-54,.cls-56,.cls-58,.cls-60,.cls-62,.cls-64,.cls-7,.cls-9{fill:none;}.cls-2{clip-path:url(#clip-path);}.cls-3{fill:#facbcb;}.cls-11,.cls-13,.cls-15,.cls-17,.cls-19,.cls-21,.cls-23,.cls-25,.cls-27,.cls-29,.cls-3,.cls-31,.cls-33,.cls-35,.cls-37,.cls-39,.cls-41,.cls-43,.cls-45,.cls-47,.cls-49,.cls-5,.cls-51,.cls-53,.cls-55,.cls-57,.cls-59,.cls-6,.cls-61,.cls-63,.cls-8{fill-rule:evenodd;}.cls-4{stroke:#facbcb;}.cls-10,.cls-12,.cls-14,.cls-16,.cls-18,.cls-20,.cls-22,.cls-24,.cls-26,.cls-28,.cls-30,.cls-32,.cls-34,.cls-36,.cls-38,.cls-4,.cls-40,.cls-42,.cls-44,.cls-46,.cls-48,.cls-50,.cls-52,.cls-54,.cls-56,.cls-58,.cls-60,.cls-62,.cls-64,.cls-7,.cls-9{stroke-miterlimit:3.86;stroke-width:0.31px;}.cls-5,.cls-65{fill:#fff;}.cls-6{fill:#93d6e6;}.cls-7{stroke:#93d6e6;}.cls-8{fill:#7f1e5c;}.cls-9{stroke:#7f1e5c;}.cls-10{stroke:#fff;}.cls-11{fill:#b0bfc8;}.cls-12{stroke:#b0bfc8;}.cls-13{fill:#e1e2e3;}.cls-14{stroke:#e1e2e3;}.cls-15{fill:#f3ea27;}.cls-16{stroke:#f3ea27;}.cls-17{fill:#d5de2a;}.cls-18{stroke:#d5de2a;}.cls-19{fill:#78431c;}.cls-20{stroke:#78431c;}.cls-21{fill:#8da2ad;}.cls-22{stroke:#8da2ad;}.cls-23{fill:#c52128;}.cls-24{stroke:#c52128;}.cls-25{fill:#eb6a56;}.cls-26{stroke:#eb6a56;}.cls-27{fill:#c9652b;}.cls-28{stroke:#c9652b;}.cls-29{fill:#ec2f27;}.cls-30{stroke:#ec2f27;}.cls-31{fill:#c52d2c;}.cls-32{stroke:#c52d2c;}.cls-33{fill:#f8e2b0;}.cls-34{stroke:#f8e2b0;}.cls-35{fill:#d58528;}.cls-36{stroke:#d58528;}.cls-37{fill:#f1b698;}.cls-38{stroke:#f1b698;}.cls-39{fill:#f5a1b6;}.cls-40{stroke:#f5a1b6;}.cls-41{fill:#f9c9d3;}.cls-42{stroke:#f9c9d3;}.cls-43{fill:#8d80b3;}.cls-44{stroke:#8d80b3;}.cls-45{fill:#817087;}.cls-46{stroke:#817087;}.cls-47{fill:#5571b6;}.cls-48{stroke:#5571b6;}.cls-49{fill:#859ace;}.cls-50{stroke:#859ace;}.cls-51{fill:#5e64a6;}.cls-52{stroke:#5e64a6;}.cls-53{fill:#3870ac;}.cls-54{stroke:#3870ac;}.cls-55{fill:#f89e20;}.cls-56{stroke:#f89e20;}.cls-57{fill:#492d16;}.cls-58{stroke:#492d16;}.cls-59{fill:#a72171;}.cls-60{stroke:#a72171;}.cls-61{fill:#5a96a5;}.cls-62{stroke:#5a96a5;}.cls-63{fill:#009bc8;}.cls-64{stroke:#009bc8;}.cls-65{font-size:6.21px;font-family:PFBagueSansPro-Thin, PF Bague Sans Pro;}.cls-66{letter-spacing:-0.06em;}.cls-67{font-size:13.06px;}</style><clipPath id="clip-path"><rect class="cls-1" x="0.11" y="0.11" width="28" height="28"/></clipPath></defs><title>LogoGew</title><g id="Layer_2" data-name="Layer 2"><g id="Mobile"><g class="cls-2"><g class="cls-2"><path class="cls-3" d="M15.75.23a14.11,14.11,0,0,1,3.1.67l-1.35,4a9.86,9.86,0,0,0-2.18-.45Z"/><path class="cls-4" d="M15.75.23a14.11,14.11,0,0,1,3.1.67l-1.35,4a9.86,9.86,0,0,0-2.18-.45Z"/><path class="cls-5" d="M18.85.9l.45.16L17.82,5l-.31-.11Z"/><path class="cls-6" d="M19.3,1.06l.68.27L18.3,5.17,17.82,5Z"/><path class="cls-7" d="M19.3,1.06l.68.27L18.3,5.17,17.82,5Z"/><path class="cls-6" d="M20,1.33a14.14,14.14,0,0,1,3.15,1.9L20.53,6.51A9.88,9.88,0,0,0,18.3,5.18Z"/><path class="cls-7" d="M20,1.33a14.14,14.14,0,0,1,3.15,1.9L20.53,6.51A9.88,9.88,0,0,0,18.3,5.18Z"/><path class="cls-8" d="M25.71,5.89l.32.45L22.57,8.7l-.23-.32Z"/><path class="cls-9" d="M25.71,5.89l.32.45L22.57,8.7l-.23-.32Z"/><path class="cls-5" d="M26,6.35a14.14,14.14,0,0,1,1.44,2.71l-3.89,1.55a9.84,9.84,0,0,0-1-1.91Z"/><path class="cls-10" d="M26,6.35a14.14,14.14,0,0,1,1.44,2.71l-3.89,1.55a9.84,9.84,0,0,0-1-1.91Z"/><path class="cls-11" d="M27.48,9.06q.26.65.46,1.33l-4,1.16a9.79,9.79,0,0,0-.32-.93Z"/><path class="cls-12" d="M27.48,9.06q.26.65.46,1.33l-4,1.16a9.79,9.79,0,0,0-.32-.93Z"/><path class="cls-13" d="M28.48,14.32a14.19,14.19,0,0,1-.4,3.35l-4.1-1a9.89,9.89,0,0,0,.3-2.41V14.1l4.2-.09c0,.1,0,.21,0,.31"/><path class="cls-14" d="M28.48,14.32a14.19,14.19,0,0,1-.4,3.35l-4.1-1a9.89,9.89,0,0,0,.3-2.41V14.1l4.2-.09C28.48,14.11,28.48,14.22,28.48,14.32Z"/><path class="cls-15" d="M28.08,17.68A14.06,14.06,0,0,1,27.31,20l-3.88-1.69a9.83,9.83,0,0,0,.55-1.6Z"/><path class="cls-16" d="M28.08,17.68A14.06,14.06,0,0,1,27.31,20l-3.88-1.69a9.83,9.83,0,0,0,.55-1.6Z"/><path class="cls-17" d="M27.31,20a14.1,14.1,0,0,1-.74,1.47L22.9,19.31a9.87,9.87,0,0,0,.53-1Z"/><path class="cls-18" d="M27.31,20a14.1,14.1,0,0,1-.74,1.47L22.9,19.31a9.87,9.87,0,0,0,.53-1Z"/><path class="cls-19" d="M18.19,27.95l-.4.11-1.06-4.18L17,23.8Z"/><path class="cls-20" d="M18.19,27.95l-.4.11-1.06-4.18L17,23.8Z"/><path class="cls-21" d="M12.66,28.39a14,14,0,0,1-2.44-.51l1.26-4.17a9.84,9.84,0,0,0,1.69.36Z"/><path class="cls-22" d="M12.66,28.39a14,14,0,0,1-2.44-.51l1.26-4.17a9.84,9.84,0,0,0,1.69.36Z"/><path class="cls-23" d="M10.22,27.88q-.64-.19-1.25-.44l1.64-4q.42.17.86.31Z"/><path class="cls-24" d="M10.22,27.88q-.64-.19-1.25-.44l1.64-4q.42.17.86.31Z"/><path class="cls-25" d="M6.59,26.19,9,22.53a9.81,9.81,0,0,0,1.64.87L9,27.44a14.11,14.11,0,0,1-2.37-1.24"/><path class="cls-26" d="M6.59,26.19,9,22.53a9.81,9.81,0,0,0,1.64.87L9,27.44A14.11,14.11,0,0,1,6.59,26.19Z"/><path class="cls-27" d="M6.59,26.19l-.52-.36,2.54-3.55.36.25Z"/><path class="cls-28" d="M6.59,26.19l-.52-.36,2.54-3.55.36.25Z"/><path class="cls-17" d="M6.07,25.83a14.24,14.24,0,0,1-1.48-1.22l3-3.18a9.9,9.9,0,0,0,1,.85Z"/><path class="cls-18" d="M6.07,25.83a14.24,14.24,0,0,1-1.48-1.22l3-3.18a9.9,9.9,0,0,0,1,.85Z"/><path class="cls-29" d="M4.59,24.61a14.21,14.21,0,0,1-3.15-4.4l4-1.82a9.91,9.91,0,0,0,2.18,3Z"/><path class="cls-30" d="M4.59,24.61a14.21,14.21,0,0,1-3.15-4.4l4-1.82a9.91,9.91,0,0,0,2.18,3Z"/><path class="cls-31" d="M1.43,20.21l-.18-.4,4-1.69.12.28Z"/><path class="cls-32" d="M1.43,20.21l-.18-.4,4-1.69.12.28Z"/><path class="cls-33" d="M1.25,19.8a14.05,14.05,0,0,1-.77-2.42l4.26-.94a9.86,9.86,0,0,0,.54,1.67Z"/><path class="cls-34" d="M1.25,19.8a14.05,14.05,0,0,1-.77-2.42l4.26-.94a9.86,9.86,0,0,0,.54,1.67Z"/><path class="cls-35" d="M.16,14.32a14.31,14.31,0,0,1,.1-1.7l4.31.52a10,10,0,0,0-.06,1.12c0,.15,0,.29,0,.44l-4.35.17q0-.27,0-.55"/><path class="cls-36" d="M.16,14.32a14.31,14.31,0,0,1,.1-1.7l4.31.52a10,10,0,0,0-.06,1.12c0,.15,0,.29,0,.44l-4.35.17Q.16,14.6.16,14.32Z"/><path class="cls-29" d="M.26,12.62a14.08,14.08,0,0,1,.53-2.48l4.14,1.28a9.84,9.84,0,0,0-.35,1.72Z"/><path class="cls-30" d="M.26,12.62a14.08,14.08,0,0,1,.53-2.48l4.14,1.28a9.84,9.84,0,0,0-.35,1.72Z"/><path class="cls-37" d="M1.76,7.77q.29-.55.63-1.08L6,9q-.23.37-.43.75Z"/><path class="cls-38" d="M1.76,7.77q.29-.55.63-1.08L6,9q-.23.37-.43.75Z"/><path class="cls-39" d="M2.39,6.69q.25-.39.52-.76L6.37,8.48Q6.18,8.74,6,9Z"/><path class="cls-40" d="M2.39,6.69q.25-.39.52-.76L6.37,8.48Q6.18,8.74,6,9Z"/><path class="cls-39" d="M2.91,5.93A14.24,14.24,0,0,1,5.4,3.32L8.09,6.65A10,10,0,0,0,6.37,8.48Z"/><path class="cls-40" d="M2.91,5.93A14.24,14.24,0,0,1,5.4,3.32L8.09,6.65A10,10,0,0,0,6.37,8.48Z"/><path class="cls-41" d="M5.4,3.32q.53-.43,1.11-.82L8.86,6.07q-.4.27-.77.58Z"/><path class="cls-42" d="M5.4,3.32q.53-.43,1.11-.82L8.86,6.07q-.4.27-.77.58Z"/><path class="cls-43" d="M6.51,2.5,7,2.2l2.2,3.65-.33.21Z"/><path class="cls-44" d="M6.51,2.5,7,2.2l2.2,3.65-.33.21Z"/><path class="cls-45" d="M7,2.2l.49-.28L9.53,5.65l-.34.2Z"/><path class="cls-46" d="M7,2.2l.49-.28L9.53,5.65l-.34.2Z"/><path class="cls-5" d="M7.48,1.91q.57-.32,1.17-.58l1.7,3.9q-.42.19-.82.41Z"/><path class="cls-10" d="M7.48,1.91q.57-.32,1.17-.58l1.7,3.9q-.42.19-.82.41Z"/><path class="cls-47" d="M8.66,1.33l.67-.27,1.49,4-.47.2Z"/><path class="cls-48" d="M8.66,1.33l.67-.27,1.49,4-.47.2Z"/><path class="cls-49" d="M9.34,1.06A14.06,14.06,0,0,1,12.25.31l.61,4.19a9.83,9.83,0,0,0-2,.54Z"/><path class="cls-50" d="M9.34,1.06A14.06,14.06,0,0,1,12.25.31l.61,4.19a9.83,9.83,0,0,0-2,.54Z"/><path class="cls-43" d="M15.74.23l-.43,4.19q-.45,0-.92,0H14L13.91.16h.41q.72,0,1.42.07"/><path class="cls-44" d="M15.74.23l-.43,4.19q-.45,0-.92,0H14L13.91.16h.41Q15,.16,15.74.23Z"/><path class="cls-51" d="M13.91.16,14,4.38l-.46,0L13.25.2l.66,0"/><path class="cls-52" d="M13.91.16,14,4.38l-.46,0L13.25.2Z"/><path class="cls-47" d="M12.25.31l.6-.07.43,4.2-.42.06Z"/><path class="cls-48" d="M12.25.31l.6-.07.43,4.2-.42.06Z"/><path class="cls-53" d="M13.24.2l.32,4.21-.27,0L12.86.23l.38,0"/><path class="cls-54" d="M13.24.2l.32,4.21-.27,0L12.86.23Z"/><path class="cls-33" d="M1.76,7.77l3.83,2-.08.16L1.64,8l.11-.22"/><path class="cls-34" d="M1.76,7.77l3.83,2-.08.16L1.64,8Z"/><path class="cls-55" d="M.78,10.14q.11-.36.24-.71l4.06,1.5q-.09.25-.16.5Z"/><path class="cls-56" d="M.78,10.14q.11-.36.24-.71l4.06,1.5q-.09.25-.16.5Z"/><path class="cls-35" d="M5.09,10.92,1,9.42A14.05,14.05,0,0,1,1.64,8L5.5,9.93a9.83,9.83,0,0,0-.42,1"/><path class="cls-36" d="M5.09,10.92,1,9.42A14.05,14.05,0,0,1,1.64,8L5.5,9.93A9.83,9.83,0,0,0,5.09,10.92Z"/><path class="cls-57" d="M12.66,28.39l.5-4.31a10,10,0,0,0,1.23.08q.48,0,1,0l.46,4.3a14.35,14.35,0,0,1-3.15,0"/><path class="cls-58" d="M12.66,28.39l.5-4.31a10,10,0,0,0,1.23.08q.48,0,1,0l.46,4.3a14.35,14.35,0,0,1-3.15,0Z"/><path class="cls-19" d="M17.79,28.06a14.06,14.06,0,0,1-2,.35l-.46-4.3a9.92,9.92,0,0,0,1.37-.23Z"/><path class="cls-20" d="M17.79,28.06a14.06,14.06,0,0,1-2,.35l-.46-4.3a9.92,9.92,0,0,0,1.37-.23Z"/><path class="cls-6" d="M23.14,3.23a14.27,14.27,0,0,1,1.45,1.33l-3,2.88a10,10,0,0,0-1-.93Z"/><path class="cls-7" d="M23.14,3.23a14.27,14.27,0,0,1,1.45,1.33l-3,2.88a10,10,0,0,0-1-.93Z"/><path class="cls-59" d="M25.7,5.89,22.34,8.38a10,10,0,0,0-.78-.93l3-2.88A14.23,14.23,0,0,1,25.7,5.89"/><path class="cls-60" d="M25.7,5.89,22.34,8.38a10,10,0,0,0-.78-.93l3-2.88A14.23,14.23,0,0,1,25.7,5.89Z"/><path class="cls-5" d="M.49,17.37q-.13-.6-.21-1.21l4.32-.57q.06.43.15.84Z"/><path class="cls-10" d="M.49,17.37q-.13-.6-.21-1.21l4.32-.57q.06.43.15.84Z"/><path class="cls-55" d="M.17,14.88l4.35-.17q0,.45.08.88l-4.32.57q-.08-.63-.11-1.28"/><path class="cls-56" d="M.17,14.88l4.35-.17q0,.45.08.88l-4.32.57Q.19,15.52.17,14.88Z"/><path class="cls-15" d="M26.57,21.44a14.21,14.21,0,0,1-1.67,2.3l-3.18-2.83a9.88,9.88,0,0,0,1.19-1.6Z"/><path class="cls-16" d="M26.57,21.44a14.21,14.21,0,0,1-1.67,2.3l-3.18-2.83a9.88,9.88,0,0,0,1.19-1.6Z"/><path class="cls-13" d="M18.19,27.95,17,23.8a9.89,9.89,0,0,0,4.7-2.89l3.18,2.83a14.16,14.16,0,0,1-6.7,4.2"/><path class="cls-14" d="M18.19,27.95,17,23.8a9.89,9.89,0,0,0,4.7-2.89l3.18,2.83A14.16,14.16,0,0,1,18.19,27.95Z"/><path class="cls-61" d="M24.18,12.83l4.15-.63a14.32,14.32,0,0,1,.15,1.8l-4.2.1a9.85,9.85,0,0,0-.1-1.27"/><path class="cls-62" d="M24.18,12.83l4.15-.63a14.32,14.32,0,0,1,.15,1.8l-4.2.1A9.85,9.85,0,0,0,24.18,12.83Z"/><path class="cls-63" d="M27.93,10.39a14.12,14.12,0,0,1,.39,1.8l-4.15.63a9.93,9.93,0,0,0-.27-1.27Z"/><path class="cls-64" d="M27.93,10.39a14.12,14.12,0,0,1,.39,1.8l-4.15.63a9.93,9.93,0,0,0-.27-1.27Z"/></g></g><text class="cls-65" transform="translate(35.23 6.85)">ВСЕМИРНАЯ НЕДЕЛЯ<tspan x="0" y="7.45">ПРЕДПРИНИМ</tspan><tspan class="cls-66" x="41.14" y="7.45">А</tspan><tspan x="44.49" y="7.45">ТЕЛЬСТВА </tspan><tspan class="cls-67"><tspan x="0" y="19.64">В БЕЛАРУСИ</tspan></tspan></text></g></g></svg>