<svg xmlns="http://www.w3.org/2000/svg" viewBox="0 0 40.74 39.02"><defs><style>.cls-1{fill:#3ff;}</style></defs><title>Member</title><g id="Layer_2" data-name="Layer 2"><g id="Mobile"><g id="iconMember"><path class="cls-1" d="M9.61,39a3,3,0,0,1-2.92-3.68L9.13,24.87l-8.1-7a3,3,0,0,1,1.72-5.25l10.67-.91,4.19-9.84a3,3,0,0,1,5.52,0l4.19,9.84L38,12.57a3,3,0,0,1,1.72,5.25l-8.1,7.05L34,35.33a3,3,0,0,1-4.48,3.25L20.37,33l-9.21,5.58A3,3,0,0,1,9.61,39ZM20.37,28.83a3,3,0,0,1,1.56.44l7.69,4.66-2-8.73a3,3,0,0,1,1-2.94l6.77-5.89-8.92-.76a3,3,0,0,1-2.51-1.81l-3.5-8.23-3.5,8.23a3,3,0,0,1-2.51,1.81l-8.92.76,6.77,5.89a3,3,0,0,1,1,2.94l-2,8.73,7.69-4.66A3,3,0,0,1,20.37,28.83Zm.52,3.86h0Z"/></g></g></g></svg>