<svg xmlns="http://www.w3.org/2000/svg" viewBox="0 0 40.75 38.97"><title>Member</title><path d="M9.61 39a3 3 0 0 1-2.92-3.68l2.44-10.49-8.1-7a3 3 0 0 1 1.72-5.25l10.67-.91 4.19-9.84a3 3 0 0 1 5.52 0l4.19 9.84 10.68.86a3 3 0 0 1 1.72 5.25l-8.1 7L34 35.29a3 3 0 0 1-4.48 3.25L20.37 33l-9.21 5.58a3 3 0 0 1-1.55.42zm10.76-10.21a3 3 0 0 1 1.56.44l7.69 4.66-2-8.73a3 3 0 0 1 1-2.94l6.77-5.89-8.92-.76A3 3 0 0 1 24 13.76l-3.5-8.23-3.5 8.23a3 3 0 0 1-2.51 1.81l-8.92.76 6.77 5.89a3 3 0 0 1 1 2.94l-2 8.73L19 29.23a3 3 0 0 1 1.37-.44zm.52 3.86z" fill="#3ff"/></svg>