<svg xmlns="http://www.w3.org/2000/svg" viewBox="0 0 23.82 23.82"><defs><style>.cls-1{fill:#fff;}</style></defs><title>Phone</title><g id="Layer_2" data-name="Layer 2"><g id="Mobile"><path class="cls-1" d="M20.74,2a1.06,1.06,0,0,1,1.08,1.08,18,18,0,0,1-5.5,13.24,18,18,0,0,1-13.24,5.5A1.06,1.06,0,0,1,2,20.74V16.87c0-1.24,1.73-2.51,3.56-2.51a3.57,3.57,0,0,1,2.58,1.06l.19.16A1.6,1.6,0,0,0,9.45,16a1.46,1.46,0,0,0,.76-.21,16.06,16.06,0,0,0,5.68-5.38,1.6,1.6,0,0,0-.21-2l-.26-.34C13.78,6.51,14.61,2,16.87,2h3.87m0-2H16.87A4.16,4.16,0,0,0,13.1,2.84c-.83,2-.8,4.87.8,6.6l.15.2a14,14,0,0,1-4.56,4.3,5.61,5.61,0,0,0-3.92-1.58c-3,0-5.57,2.11-5.57,4.51v3.87a3.06,3.06,0,0,0,3.08,3.08,20.06,20.06,0,0,0,14.66-6.08A20.06,20.06,0,0,0,23.82,3.08,3.06,3.06,0,0,0,20.74,0Z"/></g></g></svg>