<svg xmlns="http://www.w3.org/2000/svg" viewBox="0 0 63 38"><title>Program</title><path d="M7 0H3a3 3 0 0 0-3 3v4a3 3 0 0 0 3 3h4a3 3 0 0 0 3-3V3a3 3 0 0 0-3-3zm0 7H3V3h4zm56-4a3 3 0 0 0-3-3H16a3 3 0 0 0-3 3v4a3 3 0 0 0 3 3h44a3 3 0 0 0 3-3zm-3 4H16V3h44zM10 17a3 3 0 0 0-3-3H3a3 3 0 0 0-3 3v4a3 3 0 0 0 3 3h4a3 3 0 0 0 3-3zm-3 4H3v-4h4zm56-4a3 3 0 0 0-3-3H16a3 3 0 0 0-3 3v4a3 3 0 0 0 3 3h44a3 3 0 0 0 3-3zm-3 4H16v-4h44zM10 31a3 3 0 0 0-3-3H3a3 3 0 0 0-3 3v4a3 3 0 0 0 3 3h4a3 3 0 0 0 3-3zm-3 4H3v-4h4zm56-4a3 3 0 0 0-3-3H16a3 3 0 0 0-3 3v4a3 3 0 0 0 3 3h44a3 3 0 0 0 3-3zm-3 4H16v-4h44z" fill="#3ff"/></svg>