<svg xmlns="http://www.w3.org/2000/svg" viewBox="0 0 25.08 25.08"><defs><style>.cls-1{fill:#3ff;}</style></defs><title>Ticket</title><g id="Layer_2" data-name="Layer 2"><g id="Mobile"><path class="cls-1" d="M14.65,2l1.9,1.9a3.28,3.28,0,0,0,4.64,4.64l1.9,1.9L10.43,23.08,8.53,21.18l.22-.2a3.28,3.28,0,1,0-4.64-4.64l-.2.22L2,14.65,14.65,2m0-2a2,2,0,0,0-1.41.59L.59,13.24a2,2,0,0,0,0,2.83L2.49,18a2,2,0,0,0,1.41.59H4a2,2,0,0,0,1.45-.72l.08-.09a1.28,1.28,0,0,1,1.81,1.81l-.09.08a2,2,0,0,0-.13,3L9,24.5a2,2,0,0,0,2.83,0L24.5,11.85A2,2,0,0,0,24.5,9l-1.9-1.9a2,2,0,0,0-2.83,0,1.29,1.29,0,0,1-1.81,0,1.3,1.3,0,0,1,0-1.81,2,2,0,0,0,0-2.83L16.06.59A2,2,0,0,0,14.65,0ZM12.17,14.33l2.42-2.42a1,1,0,0,0-1.41-1.41l-2.42,2.42a1,1,0,1,0,1.41,1.41Z"/></g></g></svg>