<svg xmlns="http://www.w3.org/2000/svg" viewBox="0 0 25.09 25.09"><title>Ticket</title><path d="M14.65 2l1.9 1.9a3.28 3.28 0 0 0 4.64 4.64l1.9 1.9-12.66 12.64-1.9-1.9.22-.2a3.28 3.28 0 0 0-4.64-4.64l-.2.22L2 14.65 14.65 2m0-2a2 2 0 0 0-1.41.59L.59 13.24a2 2 0 0 0 0 2.83L2.49 18a2 2 0 0 0 1.41.59H4a2 2 0 0 0 1.45-.72l.08-.09a1.28 1.28 0 0 1 1.81 1.81l-.09.08a2 2 0 0 0-.3 2.81l.17.19L9 24.5a2 2 0 0 0 2.83 0L24.5 11.85a2 2 0 0 0 0-2.83L22.6 7.1a2 2 0 0 0-2.83 0A1.28 1.28 0 1 1 18 5.29a2 2 0 0 0 0-2.83L16.06.59A2 2 0 0 0 14.65 0zm-2.48 14.33l2.42-2.42a1 1 0 0 0-1.41-1.41l-2.42 2.42a1 1 0 1 0 1.3 1.52z" fill="#3ff"/></svg>