<?xml version="1.0" standalone="no"?>
<!DOCTYPE svg PUBLIC "-//W3C//DTD SVG 20010904//EN"
 "http://www.w3.org/TR/2001/REC-SVG-20010904/DTD/svg10.dtd">
<svg version="1.0" xmlns="http://www.w3.org/2000/svg"
 width="275.000000pt" height="275.000000pt" viewBox="0 0 275.000000 275.000000"
 preserveAspectRatio="xMidYMid meet">
<metadata>
Created by potrace 1.11, written by Peter Selinger 2001-2013
</metadata>
<g transform="translate(0.000000,275.000000) scale(0.100000,-0.100000)"
fill="#000000" stroke="none">
<path d="M1602 2499 c-11 -11 -46 -73 -78 -138 l-59 -119 -90 -1 c-113 -1
-151 -6 -257 -37 -12 -3 -29 12 -57 50 -22 30 -69 84 -104 121 l-64 66 -59
-32 c-60 -33 -201 -126 -209 -139 -3 -5 32 -90 110 -265 14 -33 20 -23 -84
-151 -5 -6 -28 -51 -52 -101 l-44 -90 -100 1 c-55 0 -126 -3 -157 -8 l-57 -7
-11 -52 c-7 -29 -14 -100 -17 -159 l-6 -106 79 -25 c44 -13 114 -32 157 -41
71 -16 77 -19 77 -42 0 -44 55 -207 93 -274 l24 -42 -80 -107 c-123 -164 -121
-142 -19 -247 48 -49 101 -99 117 -111 l30 -21 125 94 c69 52 126 94 126 94 1
0 28 -13 60 -29 70 -35 169 -68 227 -76 56 -9 63 -17 70 -73 6 -53 54 -210 69
-229 12 -15 154 -11 246 7 80 16 83 23 85 200 l1 135 87 43 c75 36 190 116
210 145 3 5 42 -9 85 -31 43 -21 110 -49 148 -62 l70 -23 18 24 c11 13 25 31
32 39 23 29 85 135 101 173 l15 37 -42 41 c-24 22 -78 68 -121 101 -52 42 -76
67 -72 77 23 79 36 175 37 274 l0 77 66 30 c37 17 74 34 82 40 8 5 40 24 71
41 66 38 66 39 19 174 -43 126 -65 164 -92 160 -13 -2 -43 -6 -68 -9 -57 -8
-75 -11 -130 -26 -87 -24 -94 -23 -114 11 -28 48 -169 183 -235 226 -2 1 6 39
18 85 11 46 24 116 27 156 l7 72 -64 29 c-66 30 -191 71 -215 71 -7 0 -22 -9
-32 -21z m-94 -551 c174 -45 317 -152 400 -300 59 -104 83 -276 57 -402 -28
-133 -115 -271 -220 -351 -56 -42 -155 -92 -200 -99 -16 -3 -43 -10 -60 -14
-47 -13 -194 -6 -256 12 -65 19 -148 57 -181 83 -13 10 -53 47 -89 84 -72 71
-125 166 -153 272 -21 85 -15 234 14 317 24 67 88 176 131 221 85 89 214 160
319 176 19 3 36 6 38 8 8 7 167 2 200 -7z"/>
</g>
</svg>
